<?xml version="1.0" encoding="utf-8"?>
<svg xmlns="http://www.w3.org/2000/svg" xmlns:xlink="http://www.w3.org/1999/xlink" width="1000" height="800" viewBox="0 0 4000 3200">
<defs>
  <clipPath id="clip550">
    <rect x="0" y="0" width="4000" height="3200"/>
  </clipPath>
</defs>
<path clip-path="url(#clip550)" d="M0 3200 L4000 3200 L4000 -1.77636e-13 L0 -1.77636e-13  Z" fill="#ffffff" fill-rule="evenodd" fill-opacity="1"/>
<defs>
  <clipPath id="clip551">
    <rect x="800" y="0" width="2801" height="2801"/>
  </clipPath>
</defs>
<path clip-path="url(#clip550)" d="M230.625 2990.76 L3952.76 2990.76 L3952.76 135.568 L230.625 135.568  Z" fill="#ffffff" fill-rule="evenodd" fill-opacity="1"/>
<defs>
  <clipPath id="clip552">
    <rect x="230" y="135" width="3723" height="2856"/>
  </clipPath>
</defs>
<polyline clip-path="url(#clip552)" style="stroke:#000000; stroke-linecap:round; stroke-linejoin:round; stroke-width:2; stroke-opacity:0.1; fill:none" points="335.968,2990.76 335.968,135.568 "/>
<polyline clip-path="url(#clip552)" style="stroke:#000000; stroke-linecap:round; stroke-linejoin:round; stroke-width:2; stroke-opacity:0.1; fill:none" points="1272.35,2990.76 1272.35,135.568 "/>
<polyline clip-path="url(#clip552)" style="stroke:#000000; stroke-linecap:round; stroke-linejoin:round; stroke-width:2; stroke-opacity:0.1; fill:none" points="2208.74,2990.76 2208.74,135.568 "/>
<polyline clip-path="url(#clip552)" style="stroke:#000000; stroke-linecap:round; stroke-linejoin:round; stroke-width:2; stroke-opacity:0.1; fill:none" points="3145.12,2990.76 3145.12,135.568 "/>
<polyline clip-path="url(#clip550)" style="stroke:#000000; stroke-linecap:round; stroke-linejoin:round; stroke-width:4; stroke-opacity:1; fill:none" points="230.625,2990.76 3952.76,2990.76 "/>
<polyline clip-path="url(#clip550)" style="stroke:#000000; stroke-linecap:round; stroke-linejoin:round; stroke-width:4; stroke-opacity:1; fill:none" points="335.968,2990.76 335.968,2971.87 "/>
<polyline clip-path="url(#clip550)" style="stroke:#000000; stroke-linecap:round; stroke-linejoin:round; stroke-width:4; stroke-opacity:1; fill:none" points="1272.35,2990.76 1272.35,2971.87 "/>
<polyline clip-path="url(#clip550)" style="stroke:#000000; stroke-linecap:round; stroke-linejoin:round; stroke-width:4; stroke-opacity:1; fill:none" points="2208.74,2990.76 2208.74,2971.87 "/>
<polyline clip-path="url(#clip550)" style="stroke:#000000; stroke-linecap:round; stroke-linejoin:round; stroke-width:4; stroke-opacity:1; fill:none" points="3145.12,2990.76 3145.12,2971.87 "/>
<path clip-path="url(#clip550)" d="M335.968 3034.48 Q332.357 3034.48 330.529 3038.05 Q328.723 3041.59 328.723 3048.72 Q328.723 3055.83 330.529 3059.39 Q332.357 3062.93 335.968 3062.93 Q339.603 3062.93 341.408 3059.39 Q343.237 3055.83 343.237 3048.72 Q343.237 3041.59 341.408 3038.05 Q339.603 3034.48 335.968 3034.48 M335.968 3030.78 Q341.778 3030.78 344.834 3035.39 Q347.913 3039.97 347.913 3048.72 Q347.913 3057.45 344.834 3062.05 Q341.778 3066.64 335.968 3066.64 Q330.158 3066.64 327.079 3062.05 Q324.024 3057.45 324.024 3048.72 Q324.024 3039.97 327.079 3035.39 Q330.158 3030.78 335.968 3030.78 Z" fill="#000000" fill-rule="nonzero" fill-opacity="1" /><path clip-path="url(#clip550)" d="M1251.13 3062.03 L1267.45 3062.03 L1267.45 3065.96 L1245.5 3065.96 L1245.5 3062.03 Q1248.16 3059.27 1252.75 3054.64 Q1257.35 3049.99 1258.53 3048.65 Q1260.78 3046.13 1261.66 3044.39 Q1262.56 3042.63 1262.56 3040.94 Q1262.56 3038.19 1260.62 3036.45 Q1258.7 3034.71 1255.59 3034.71 Q1253.4 3034.71 1250.94 3035.48 Q1248.51 3036.24 1245.73 3037.79 L1245.73 3033.07 Q1248.56 3031.94 1251.01 3031.36 Q1253.46 3030.78 1255.5 3030.78 Q1260.87 3030.78 1264.07 3033.46 Q1267.26 3036.15 1267.26 3040.64 Q1267.26 3042.77 1266.45 3044.69 Q1265.66 3046.59 1263.56 3049.18 Q1262.98 3049.85 1259.88 3053.07 Q1256.77 3056.26 1251.13 3062.03 Z" fill="#000000" fill-rule="nonzero" fill-opacity="1" /><path clip-path="url(#clip550)" d="M1287.26 3034.48 Q1283.65 3034.48 1281.82 3038.05 Q1280.02 3041.59 1280.02 3048.72 Q1280.02 3055.83 1281.82 3059.39 Q1283.65 3062.93 1287.26 3062.93 Q1290.9 3062.93 1292.7 3059.39 Q1294.53 3055.83 1294.53 3048.72 Q1294.53 3041.59 1292.7 3038.05 Q1290.9 3034.48 1287.26 3034.48 M1287.26 3030.78 Q1293.07 3030.78 1296.13 3035.39 Q1299.21 3039.97 1299.21 3048.72 Q1299.21 3057.45 1296.13 3062.05 Q1293.07 3066.64 1287.26 3066.64 Q1281.45 3066.64 1278.37 3062.05 Q1275.32 3057.45 1275.32 3048.72 Q1275.32 3039.97 1278.37 3035.39 Q1281.45 3030.78 1287.26 3030.78 Z" fill="#000000" fill-rule="nonzero" fill-opacity="1" /><path clip-path="url(#clip550)" d="M2196.91 3035.48 L2185.1 3053.93 L2196.91 3053.93 L2196.91 3035.48 M2195.68 3031.4 L2201.56 3031.4 L2201.56 3053.93 L2206.49 3053.93 L2206.49 3057.82 L2201.56 3057.82 L2201.56 3065.96 L2196.91 3065.96 L2196.91 3057.82 L2181.31 3057.82 L2181.31 3053.3 L2195.68 3031.4 Z" fill="#000000" fill-rule="nonzero" fill-opacity="1" /><path clip-path="url(#clip550)" d="M2224.22 3034.48 Q2220.61 3034.48 2218.78 3038.05 Q2216.98 3041.59 2216.98 3048.72 Q2216.98 3055.83 2218.78 3059.39 Q2220.61 3062.93 2224.22 3062.93 Q2227.86 3062.93 2229.66 3059.39 Q2231.49 3055.83 2231.49 3048.72 Q2231.49 3041.59 2229.66 3038.05 Q2227.86 3034.48 2224.22 3034.48 M2224.22 3030.78 Q2230.03 3030.78 2233.09 3035.39 Q2236.17 3039.97 2236.17 3048.72 Q2236.17 3057.45 2233.09 3062.05 Q2230.03 3066.64 2224.22 3066.64 Q2218.41 3066.64 2215.34 3062.05 Q2212.28 3057.45 2212.28 3048.72 Q2212.28 3039.97 2215.34 3035.39 Q2218.41 3030.78 2224.22 3030.78 Z" fill="#000000" fill-rule="nonzero" fill-opacity="1" /><path clip-path="url(#clip550)" d="M3130.53 3046.82 Q3127.38 3046.82 3125.53 3048.97 Q3123.7 3051.13 3123.7 3054.88 Q3123.7 3058.6 3125.53 3060.78 Q3127.38 3062.93 3130.53 3062.93 Q3133.68 3062.93 3135.51 3060.78 Q3137.36 3058.6 3137.36 3054.88 Q3137.36 3051.13 3135.51 3048.97 Q3133.68 3046.82 3130.53 3046.82 M3139.81 3032.17 L3139.81 3036.43 Q3138.05 3035.59 3136.25 3035.15 Q3134.46 3034.71 3132.7 3034.71 Q3128.08 3034.71 3125.62 3037.84 Q3123.19 3040.96 3122.84 3047.28 Q3124.21 3045.27 3126.27 3044.2 Q3128.33 3043.12 3130.81 3043.12 Q3136.01 3043.12 3139.02 3046.29 Q3142.06 3049.44 3142.06 3054.88 Q3142.06 3060.2 3138.91 3063.42 Q3135.76 3066.64 3130.53 3066.64 Q3124.53 3066.64 3121.36 3062.05 Q3118.19 3057.45 3118.19 3048.72 Q3118.19 3040.52 3122.08 3035.66 Q3125.97 3030.78 3132.52 3030.78 Q3134.28 3030.78 3136.06 3031.13 Q3137.87 3031.47 3139.81 3032.17 Z" fill="#000000" fill-rule="nonzero" fill-opacity="1" /><path clip-path="url(#clip550)" d="M3160.11 3034.48 Q3156.5 3034.48 3154.67 3038.05 Q3152.87 3041.59 3152.87 3048.72 Q3152.87 3055.83 3154.67 3059.39 Q3156.5 3062.93 3160.11 3062.93 Q3163.75 3062.93 3165.55 3059.39 Q3167.38 3055.83 3167.38 3048.72 Q3167.38 3041.59 3165.55 3038.05 Q3163.75 3034.48 3160.11 3034.48 M3160.11 3030.78 Q3165.92 3030.78 3168.98 3035.39 Q3172.06 3039.97 3172.06 3048.72 Q3172.06 3057.45 3168.98 3062.05 Q3165.92 3066.64 3160.11 3066.64 Q3154.3 3066.64 3151.22 3062.05 Q3148.17 3057.45 3148.17 3048.72 Q3148.17 3039.97 3151.22 3035.39 Q3154.3 3030.78 3160.11 3030.78 Z" fill="#000000" fill-rule="nonzero" fill-opacity="1" /><path clip-path="url(#clip550)" d="M1998.66 3112.11 L2005.56 3112.11 L2017.37 3129.77 L2029.24 3112.11 L2036.15 3112.11 L2020.87 3134.93 L2037.17 3159.63 L2030.26 3159.63 L2016.89 3139.42 L2003.43 3159.63 L1996.49 3159.63 L2013.46 3134.26 L1998.66 3112.11 Z" fill="#000000" fill-rule="nonzero" fill-opacity="1" /><path clip-path="url(#clip550)" d="M2039.14 3139.16 L2056.3 3139.16 L2056.3 3144.38 L2039.14 3144.38 L2039.14 3139.16 Z" fill="#000000" fill-rule="nonzero" fill-opacity="1" /><path clip-path="url(#clip550)" d="M2081.82 3141.71 Q2074.73 3141.71 2071.99 3143.33 Q2069.25 3144.95 2069.25 3148.87 Q2069.25 3151.99 2071.29 3153.84 Q2073.36 3155.65 2076.89 3155.65 Q2081.76 3155.65 2084.69 3152.21 Q2087.65 3148.74 2087.65 3143.01 L2087.65 3141.71 L2081.82 3141.71 M2093.5 3139.29 L2093.5 3159.63 L2087.65 3159.63 L2087.65 3154.22 Q2085.64 3157.46 2082.65 3159.02 Q2079.66 3160.55 2075.33 3160.55 Q2069.86 3160.55 2066.61 3157.5 Q2063.39 3154.41 2063.39 3149.25 Q2063.39 3143.24 2067.41 3140.18 Q2071.45 3137.13 2079.44 3137.13 L2087.65 3137.13 L2087.65 3136.55 Q2087.65 3132.51 2084.97 3130.31 Q2082.33 3128.09 2077.53 3128.09 Q2074.47 3128.09 2071.57 3128.82 Q2068.68 3129.55 2066 3131.01 L2066 3125.6 Q2069.22 3124.36 2072.24 3123.76 Q2075.27 3123.12 2078.13 3123.12 Q2085.87 3123.12 2089.69 3127.13 Q2093.5 3131.14 2093.5 3139.29 Z" fill="#000000" fill-rule="nonzero" fill-opacity="1" /><path clip-path="url(#clip550)" d="M2135.2 3123.98 L2122.31 3141.33 L2135.87 3159.63 L2128.96 3159.63 L2118.59 3145.62 L2108.21 3159.63 L2101.3 3159.63 L2115.15 3140.98 L2102.48 3123.98 L2109.39 3123.98 L2118.84 3136.68 L2128.29 3123.98 L2135.2 3123.98 Z" fill="#000000" fill-rule="nonzero" fill-opacity="1" /><path clip-path="url(#clip550)" d="M2144.14 3123.98 L2150 3123.98 L2150 3159.63 L2144.14 3159.63 L2144.14 3123.98 M2144.14 3110.1 L2150 3110.1 L2150 3117.52 L2144.14 3117.52 L2144.14 3110.1 Z" fill="#000000" fill-rule="nonzero" fill-opacity="1" /><path clip-path="url(#clip550)" d="M2184.98 3125.03 L2184.98 3130.57 Q2182.5 3129.3 2179.82 3128.66 Q2177.15 3128.02 2174.29 3128.02 Q2169.92 3128.02 2167.73 3129.36 Q2165.56 3130.7 2165.56 3133.37 Q2165.56 3135.41 2167.12 3136.58 Q2168.68 3137.73 2173.39 3138.78 L2175.4 3139.23 Q2181.64 3140.56 2184.25 3143.01 Q2186.89 3145.43 2186.89 3149.79 Q2186.89 3154.76 2182.94 3157.65 Q2179.03 3160.55 2172.15 3160.55 Q2169.29 3160.55 2166.17 3159.98 Q2163.08 3159.44 2159.64 3158.32 L2159.64 3152.28 Q2162.89 3153.96 2166.04 3154.82 Q2169.19 3155.65 2172.28 3155.65 Q2176.42 3155.65 2178.65 3154.25 Q2180.87 3152.82 2180.87 3150.24 Q2180.87 3147.85 2179.25 3146.58 Q2177.66 3145.31 2172.22 3144.13 L2170.18 3143.65 Q2164.74 3142.5 2162.32 3140.15 Q2159.9 3137.76 2159.9 3133.62 Q2159.9 3128.6 2163.46 3125.86 Q2167.03 3123.12 2173.59 3123.12 Q2176.83 3123.12 2179.7 3123.6 Q2182.56 3124.08 2184.98 3125.03 Z" fill="#000000" fill-rule="nonzero" fill-opacity="1" /><polyline clip-path="url(#clip552)" style="stroke:#000000; stroke-linecap:round; stroke-linejoin:round; stroke-width:2; stroke-opacity:0.1; fill:none" points="230.625,2665.09 3952.76,2665.09 "/>
<polyline clip-path="url(#clip552)" style="stroke:#000000; stroke-linecap:round; stroke-linejoin:round; stroke-width:2; stroke-opacity:0.1; fill:none" points="230.625,2175.34 3952.76,2175.34 "/>
<polyline clip-path="url(#clip552)" style="stroke:#000000; stroke-linecap:round; stroke-linejoin:round; stroke-width:2; stroke-opacity:0.1; fill:none" points="230.625,1685.6 3952.76,1685.6 "/>
<polyline clip-path="url(#clip552)" style="stroke:#000000; stroke-linecap:round; stroke-linejoin:round; stroke-width:2; stroke-opacity:0.1; fill:none" points="230.625,1195.86 3952.76,1195.86 "/>
<polyline clip-path="url(#clip552)" style="stroke:#000000; stroke-linecap:round; stroke-linejoin:round; stroke-width:2; stroke-opacity:0.1; fill:none" points="230.625,706.118 3952.76,706.118 "/>
<polyline clip-path="url(#clip552)" style="stroke:#000000; stroke-linecap:round; stroke-linejoin:round; stroke-width:2; stroke-opacity:0.1; fill:none" points="230.625,216.376 3952.76,216.376 "/>
<polyline clip-path="url(#clip550)" style="stroke:#000000; stroke-linecap:round; stroke-linejoin:round; stroke-width:4; stroke-opacity:1; fill:none" points="230.625,2990.76 230.625,135.568 "/>
<polyline clip-path="url(#clip550)" style="stroke:#000000; stroke-linecap:round; stroke-linejoin:round; stroke-width:4; stroke-opacity:1; fill:none" points="230.625,2665.09 249.523,2665.09 "/>
<polyline clip-path="url(#clip550)" style="stroke:#000000; stroke-linecap:round; stroke-linejoin:round; stroke-width:4; stroke-opacity:1; fill:none" points="230.625,2175.34 249.523,2175.34 "/>
<polyline clip-path="url(#clip550)" style="stroke:#000000; stroke-linecap:round; stroke-linejoin:round; stroke-width:4; stroke-opacity:1; fill:none" points="230.625,1685.6 249.523,1685.6 "/>
<polyline clip-path="url(#clip550)" style="stroke:#000000; stroke-linecap:round; stroke-linejoin:round; stroke-width:4; stroke-opacity:1; fill:none" points="230.625,1195.86 249.523,1195.86 "/>
<polyline clip-path="url(#clip550)" style="stroke:#000000; stroke-linecap:round; stroke-linejoin:round; stroke-width:4; stroke-opacity:1; fill:none" points="230.625,706.118 249.523,706.118 "/>
<polyline clip-path="url(#clip550)" style="stroke:#000000; stroke-linecap:round; stroke-linejoin:round; stroke-width:4; stroke-opacity:1; fill:none" points="230.625,216.376 249.523,216.376 "/>
<path clip-path="url(#clip550)" d="M119.329 2678.43 L126.968 2678.43 L126.968 2652.06 L118.658 2653.73 L118.658 2649.47 L126.922 2647.81 L131.597 2647.81 L131.597 2678.43 L139.236 2678.43 L139.236 2682.37 L119.329 2682.37 L119.329 2678.43 Z" fill="#000000" fill-rule="nonzero" fill-opacity="1" /><path clip-path="url(#clip550)" d="M158.681 2650.88 Q155.07 2650.88 153.241 2654.45 Q151.435 2657.99 151.435 2665.12 Q151.435 2672.23 153.241 2675.79 Q155.07 2679.33 158.681 2679.33 Q162.315 2679.33 164.12 2675.79 Q165.949 2672.23 165.949 2665.12 Q165.949 2657.99 164.12 2654.45 Q162.315 2650.88 158.681 2650.88 M158.681 2647.18 Q164.491 2647.18 167.546 2651.79 Q170.625 2656.37 170.625 2665.12 Q170.625 2673.85 167.546 2678.45 Q164.491 2683.04 158.681 2683.04 Q152.87 2683.04 149.792 2678.45 Q146.736 2673.85 146.736 2665.12 Q146.736 2656.37 149.792 2651.79 Q152.87 2647.18 158.681 2647.18 Z" fill="#000000" fill-rule="nonzero" fill-opacity="1" /><path clip-path="url(#clip550)" d="M122.547 2188.69 L138.866 2188.69 L138.866 2192.62 L116.922 2192.62 L116.922 2188.69 Q119.584 2185.93 124.167 2181.3 Q128.773 2176.65 129.954 2175.31 Q132.199 2172.79 133.079 2171.05 Q133.982 2169.29 133.982 2167.6 Q133.982 2164.85 132.037 2163.11 Q130.116 2161.37 127.014 2161.37 Q124.815 2161.37 122.361 2162.14 Q119.931 2162.9 117.153 2164.45 L117.153 2159.73 Q119.977 2158.6 122.431 2158.02 Q124.884 2157.44 126.922 2157.44 Q132.292 2157.44 135.486 2160.12 Q138.681 2162.81 138.681 2167.3 Q138.681 2169.43 137.871 2171.35 Q137.083 2173.25 134.977 2175.84 Q134.398 2176.51 131.296 2179.73 Q128.195 2182.92 122.547 2188.69 Z" fill="#000000" fill-rule="nonzero" fill-opacity="1" /><path clip-path="url(#clip550)" d="M158.681 2161.14 Q155.07 2161.14 153.241 2164.71 Q151.435 2168.25 151.435 2175.38 Q151.435 2182.48 153.241 2186.05 Q155.07 2189.59 158.681 2189.59 Q162.315 2189.59 164.12 2186.05 Q165.949 2182.48 165.949 2175.38 Q165.949 2168.25 164.12 2164.71 Q162.315 2161.14 158.681 2161.14 M158.681 2157.44 Q164.491 2157.44 167.546 2162.04 Q170.625 2166.63 170.625 2175.38 Q170.625 2184.1 167.546 2188.71 Q164.491 2193.29 158.681 2193.29 Q152.87 2193.29 149.792 2188.71 Q146.736 2184.1 146.736 2175.38 Q146.736 2166.63 149.792 2162.04 Q152.87 2157.44 158.681 2157.44 Z" fill="#000000" fill-rule="nonzero" fill-opacity="1" /><path clip-path="url(#clip550)" d="M132.685 1684.25 Q136.042 1684.96 137.917 1687.23 Q139.815 1689.5 139.815 1692.84 Q139.815 1697.95 136.296 1700.75 Q132.778 1703.55 126.297 1703.55 Q124.121 1703.55 121.806 1703.11 Q119.514 1702.7 117.06 1701.84 L117.06 1697.33 Q119.005 1698.46 121.32 1699.04 Q123.634 1699.62 126.158 1699.62 Q130.556 1699.62 132.847 1697.88 Q135.162 1696.15 135.162 1692.84 Q135.162 1689.78 133.009 1688.07 Q130.88 1686.33 127.06 1686.33 L123.033 1686.33 L123.033 1682.49 L127.246 1682.49 Q130.695 1682.49 132.523 1681.12 Q134.352 1679.73 134.352 1677.14 Q134.352 1674.48 132.454 1673.07 Q130.579 1671.63 127.06 1671.63 Q125.139 1671.63 122.94 1672.05 Q120.741 1672.46 118.102 1673.34 L118.102 1669.18 Q120.764 1668.44 123.079 1668.07 Q125.417 1667.7 127.477 1667.7 Q132.801 1667.7 135.903 1670.13 Q139.005 1672.53 139.005 1676.65 Q139.005 1679.53 137.361 1681.52 Q135.718 1683.48 132.685 1684.25 Z" fill="#000000" fill-rule="nonzero" fill-opacity="1" /><path clip-path="url(#clip550)" d="M158.681 1671.4 Q155.07 1671.4 153.241 1674.96 Q151.435 1678.51 151.435 1685.64 Q151.435 1692.74 153.241 1696.31 Q155.07 1699.85 158.681 1699.85 Q162.315 1699.85 164.12 1696.31 Q165.949 1692.74 165.949 1685.64 Q165.949 1678.51 164.12 1674.96 Q162.315 1671.4 158.681 1671.4 M158.681 1667.7 Q164.491 1667.7 167.546 1672.3 Q170.625 1676.89 170.625 1685.64 Q170.625 1694.36 167.546 1698.97 Q164.491 1703.55 158.681 1703.55 Q152.87 1703.55 149.792 1698.97 Q146.736 1694.36 146.736 1685.64 Q146.736 1676.89 149.792 1672.3 Q152.87 1667.7 158.681 1667.7 Z" fill="#000000" fill-rule="nonzero" fill-opacity="1" /><path clip-path="url(#clip550)" d="M131.366 1182.65 L119.56 1201.1 L131.366 1201.1 L131.366 1182.65 M130.139 1178.58 L136.019 1178.58 L136.019 1201.1 L140.949 1201.1 L140.949 1204.99 L136.019 1204.99 L136.019 1213.14 L131.366 1213.14 L131.366 1204.99 L115.764 1204.99 L115.764 1200.48 L130.139 1178.58 Z" fill="#000000" fill-rule="nonzero" fill-opacity="1" /><path clip-path="url(#clip550)" d="M158.681 1181.66 Q155.07 1181.66 153.241 1185.22 Q151.435 1188.76 151.435 1195.89 Q151.435 1203 153.241 1206.57 Q155.07 1210.11 158.681 1210.11 Q162.315 1210.11 164.12 1206.57 Q165.949 1203 165.949 1195.89 Q165.949 1188.76 164.12 1185.22 Q162.315 1181.66 158.681 1181.66 M158.681 1177.95 Q164.491 1177.95 167.546 1182.56 Q170.625 1187.14 170.625 1195.89 Q170.625 1204.62 167.546 1209.23 Q164.491 1213.81 158.681 1213.81 Q152.87 1213.81 149.792 1209.23 Q146.736 1204.62 146.736 1195.89 Q146.736 1187.14 149.792 1182.56 Q152.87 1177.95 158.681 1177.95 Z" fill="#000000" fill-rule="nonzero" fill-opacity="1" /><path clip-path="url(#clip550)" d="M118.565 688.838 L136.921 688.838 L136.921 692.773 L122.847 692.773 L122.847 701.245 Q123.866 700.898 124.884 700.736 Q125.903 700.55 126.922 700.55 Q132.709 700.55 136.088 703.722 Q139.468 706.893 139.468 712.31 Q139.468 717.888 135.996 720.99 Q132.523 724.069 126.204 724.069 Q124.028 724.069 121.759 723.698 Q119.514 723.328 117.107 722.587 L117.107 717.888 Q119.19 719.023 121.412 719.578 Q123.634 720.134 126.111 720.134 Q130.116 720.134 132.454 718.027 Q134.792 715.921 134.792 712.31 Q134.792 708.699 132.454 706.592 Q130.116 704.486 126.111 704.486 Q124.236 704.486 122.361 704.902 Q120.51 705.319 118.565 706.199 L118.565 688.838 Z" fill="#000000" fill-rule="nonzero" fill-opacity="1" /><path clip-path="url(#clip550)" d="M158.681 691.916 Q155.07 691.916 153.241 695.481 Q151.435 699.023 151.435 706.152 Q151.435 713.259 153.241 716.823 Q155.07 720.365 158.681 720.365 Q162.315 720.365 164.12 716.823 Q165.949 713.259 165.949 706.152 Q165.949 699.023 164.12 695.481 Q162.315 691.916 158.681 691.916 M158.681 688.213 Q164.491 688.213 167.546 692.819 Q170.625 697.402 170.625 706.152 Q170.625 714.879 167.546 719.486 Q164.491 724.069 158.681 724.069 Q152.87 724.069 149.792 719.486 Q146.736 714.879 146.736 706.152 Q146.736 697.402 149.792 692.819 Q152.87 688.213 158.681 688.213 Z" fill="#000000" fill-rule="nonzero" fill-opacity="1" /><path clip-path="url(#clip550)" d="M129.097 214.512 Q125.949 214.512 124.097 216.665 Q122.269 218.818 122.269 222.568 Q122.269 226.294 124.097 228.47 Q125.949 230.623 129.097 230.623 Q132.246 230.623 134.074 228.47 Q135.926 226.294 135.926 222.568 Q135.926 218.818 134.074 216.665 Q132.246 214.512 129.097 214.512 M138.38 199.859 L138.38 204.119 Q136.621 203.285 134.815 202.846 Q133.033 202.406 131.273 202.406 Q126.644 202.406 124.19 205.531 Q121.759 208.656 121.412 214.975 Q122.778 212.961 124.838 211.896 Q126.898 210.808 129.375 210.808 Q134.584 210.808 137.593 213.98 Q140.625 217.128 140.625 222.568 Q140.625 227.892 137.477 231.109 Q134.329 234.327 129.097 234.327 Q123.102 234.327 119.931 229.744 Q116.76 225.137 116.76 216.41 Q116.76 208.216 120.648 203.355 Q124.537 198.471 131.088 198.471 Q132.847 198.471 134.63 198.818 Q136.435 199.165 138.38 199.859 Z" fill="#000000" fill-rule="nonzero" fill-opacity="1" /><path clip-path="url(#clip550)" d="M158.681 202.174 Q155.07 202.174 153.241 205.739 Q151.435 209.281 151.435 216.41 Q151.435 223.517 153.241 227.082 Q155.07 230.623 158.681 230.623 Q162.315 230.623 164.12 227.082 Q165.949 223.517 165.949 216.41 Q165.949 209.281 164.12 205.739 Q162.315 202.174 158.681 202.174 M158.681 198.471 Q164.491 198.471 167.546 203.077 Q170.625 207.66 170.625 216.41 Q170.625 225.137 167.546 229.744 Q164.491 234.327 158.681 234.327 Q152.87 234.327 149.792 229.744 Q146.736 225.137 146.736 216.41 Q146.736 207.66 149.792 203.077 Q152.87 198.471 158.681 198.471 Z" fill="#000000" fill-rule="nonzero" fill-opacity="1" /><path clip-path="url(#clip550)" d="M-6.01184 1654.74 L-6.01184 1647.83 L13.5309 1634.65 L-6.01184 1621.57 L-6.01184 1614.66 L18.8781 1631.47 L41.5082 1631.47 L41.5082 1637.93 L18.8781 1637.93 L-6.01184 1654.74 Z" fill="#000000" fill-rule="nonzero" fill-opacity="1" /><path clip-path="url(#clip550)" d="M21.0424 1619.34 L21.0424 1602.19 L26.2623 1602.19 L26.2623 1619.34 L21.0424 1619.34 Z" fill="#000000" fill-rule="nonzero" fill-opacity="1" /><path clip-path="url(#clip550)" d="M23.5887 1576.66 Q23.5887 1583.76 25.2119 1586.5 Q26.8352 1589.23 30.7501 1589.23 Q33.8693 1589.23 35.7154 1587.2 Q37.5296 1585.13 37.5296 1581.59 Q37.5296 1576.72 34.0921 1573.8 Q30.6228 1570.84 24.8937 1570.84 L23.5887 1570.84 L23.5887 1576.66 M21.1697 1564.98 L41.5082 1564.98 L41.5082 1570.84 L36.0973 1570.84 Q39.3438 1572.84 40.9034 1575.83 Q42.4312 1578.83 42.4312 1583.15 Q42.4312 1588.63 39.3756 1591.88 Q36.2883 1595.09 31.1321 1595.09 Q25.1165 1595.09 22.0609 1591.08 Q19.0054 1587.04 19.0054 1579.05 L19.0054 1570.84 L18.4325 1570.84 Q14.3902 1570.84 12.1941 1573.51 Q9.96608 1576.15 9.96608 1580.96 Q9.96608 1584.01 10.6981 1586.91 Q11.4302 1589.81 12.8943 1592.48 L7.48346 1592.48 Q6.24214 1589.27 5.6374 1586.24 Q5.00083 1583.22 5.00083 1580.35 Q5.00083 1572.62 9.01123 1568.8 Q13.0216 1564.98 21.1697 1564.98 Z" fill="#000000" fill-rule="nonzero" fill-opacity="1" /><path clip-path="url(#clip550)" d="M5.8602 1523.28 L23.2068 1536.18 L41.5082 1522.62 L41.5082 1529.52 L27.5036 1539.9 L41.5082 1550.28 L41.5082 1557.18 L22.8566 1543.34 L5.8602 1556 L5.8602 1549.1 L18.5598 1539.64 L5.8602 1530.19 L5.8602 1523.28 Z" fill="#000000" fill-rule="nonzero" fill-opacity="1" /><path clip-path="url(#clip550)" d="M5.8602 1514.34 L5.8602 1508.48 L41.5082 1508.48 L41.5082 1514.34 L5.8602 1514.34 M-8.01704 1514.34 L-8.01704 1508.48 L-0.600992 1508.48 L-0.600992 1514.34 L-8.01704 1514.34 Z" fill="#000000" fill-rule="nonzero" fill-opacity="1" /><path clip-path="url(#clip550)" d="M6.91054 1473.51 L12.4487 1473.51 Q11.1756 1475.99 10.539 1478.66 Q9.90242 1481.33 9.90242 1484.2 Q9.90242 1488.56 11.2392 1490.76 Q12.576 1492.92 15.2496 1492.92 Q17.2866 1492.92 18.4643 1491.36 Q19.6101 1489.8 20.6605 1485.09 L21.1061 1483.09 Q22.4429 1476.85 24.8937 1474.24 Q27.3126 1471.6 31.6731 1471.6 Q36.6384 1471.6 39.5348 1475.54 Q42.4312 1479.46 42.4312 1486.33 Q42.4312 1489.2 41.8583 1492.32 Q41.3172 1495.4 40.2032 1498.84 L34.1558 1498.84 Q35.8427 1495.59 36.702 1492.44 Q37.5296 1489.29 37.5296 1486.2 Q37.5296 1482.07 36.1291 1479.84 Q34.6969 1477.61 32.1187 1477.61 Q29.7316 1477.61 28.4585 1479.23 Q27.1853 1480.83 26.0077 1486.27 L25.5302 1488.31 Q24.3844 1493.75 22.0291 1496.17 Q19.642 1498.59 15.5042 1498.59 Q10.4753 1498.59 7.73808 1495.02 Q5.00083 1491.46 5.00083 1484.9 Q5.00083 1481.65 5.47826 1478.79 Q5.95569 1475.92 6.91054 1473.51 Z" fill="#000000" fill-rule="nonzero" fill-opacity="1" /><path clip-path="url(#clip550)" d="M1825.02 16.7545 L1825.02 25.383 Q1820.89 21.5346 1816.19 19.6307 Q1811.53 17.7268 1806.26 17.7268 Q1795.89 17.7268 1790.38 24.0867 Q1784.87 30.4061 1784.87 42.3968 Q1784.87 54.3469 1790.38 60.7069 Q1795.89 67.0263 1806.26 67.0263 Q1811.53 67.0263 1816.19 65.1223 Q1820.89 63.2184 1825.02 59.3701 L1825.02 67.9175 Q1820.73 70.8341 1815.9 72.2924 Q1811.12 73.7508 1805.78 73.7508 Q1792.05 73.7508 1784.15 65.3654 Q1776.25 56.9395 1776.25 42.3968 Q1776.25 27.8135 1784.15 19.4281 Q1792.05 11.0023 1805.78 11.0023 Q1811.21 11.0023 1815.99 12.4606 Q1820.81 13.8784 1825.02 16.7545 Z" fill="#000000" fill-rule="nonzero" fill-opacity="1" /><path clip-path="url(#clip550)" d="M1854.92 32.4315 Q1848.92 32.4315 1845.44 37.1306 Q1841.95 41.7891 1841.95 49.9314 Q1841.95 58.0738 1845.4 62.7728 Q1848.88 67.4314 1854.92 67.4314 Q1860.87 67.4314 1864.35 62.7323 Q1867.84 58.0333 1867.84 49.9314 Q1867.84 41.8701 1864.35 37.1711 Q1860.87 32.4315 1854.92 32.4315 M1854.92 26.1121 Q1864.64 26.1121 1870.19 32.4315 Q1875.74 38.7509 1875.74 49.9314 Q1875.74 61.0714 1870.19 67.4314 Q1864.64 73.7508 1854.92 73.7508 Q1845.15 73.7508 1839.6 67.4314 Q1834.09 61.0714 1834.09 49.9314 Q1834.09 38.7509 1839.6 32.4315 Q1845.15 26.1121 1854.92 26.1121 Z" fill="#000000" fill-rule="nonzero" fill-opacity="1" /><path clip-path="url(#clip550)" d="M1905.67 32.4315 Q1899.68 32.4315 1896.19 37.1306 Q1892.71 41.7891 1892.71 49.9314 Q1892.71 58.0738 1896.15 62.7728 Q1899.64 67.4314 1905.67 67.4314 Q1911.63 67.4314 1915.11 62.7323 Q1918.6 58.0333 1918.6 49.9314 Q1918.6 41.8701 1915.11 37.1711 Q1911.63 32.4315 1905.67 32.4315 M1905.67 26.1121 Q1915.4 26.1121 1920.94 32.4315 Q1926.49 38.7509 1926.49 49.9314 Q1926.49 61.0714 1920.94 67.4314 Q1915.4 73.7508 1905.67 73.7508 Q1895.91 73.7508 1890.36 67.4314 Q1884.85 61.0714 1884.85 49.9314 Q1884.85 38.7509 1890.36 32.4315 Q1895.91 26.1121 1905.67 26.1121 Z" fill="#000000" fill-rule="nonzero" fill-opacity="1" /><path clip-path="url(#clip550)" d="M1965.14 34.1734 Q1963.88 33.4443 1962.39 33.1202 Q1960.93 32.7556 1959.14 32.7556 Q1952.83 32.7556 1949.42 36.8875 Q1946.06 40.9789 1946.06 48.6757 L1946.06 72.576 L1938.57 72.576 L1938.57 27.2059 L1946.06 27.2059 L1946.06 34.2544 Q1948.41 30.1225 1952.18 28.1376 Q1955.94 26.1121 1961.33 26.1121 Q1962.1 26.1121 1963.03 26.2337 Q1963.97 26.3147 1965.1 26.5172 L1965.14 34.1734 Z" fill="#000000" fill-rule="nonzero" fill-opacity="1" /><path clip-path="url(#clip550)" d="M2001.36 34.0924 L2001.36 9.54393 L2008.81 9.54393 L2008.81 72.576 L2001.36 72.576 L2001.36 65.7705 Q1999.01 69.8214 1995.4 71.8063 Q1991.84 73.7508 1986.81 73.7508 Q1978.59 73.7508 1973.4 67.1883 Q1968.26 60.6258 1968.26 49.9314 Q1968.26 39.2371 1973.4 32.6746 Q1978.59 26.1121 1986.81 26.1121 Q1991.84 26.1121 1995.4 28.0971 Q1999.01 30.0415 2001.36 34.0924 M1975.96 49.9314 Q1975.96 58.1548 1979.32 62.8538 Q1982.72 67.5124 1988.64 67.5124 Q1994.55 67.5124 1997.95 62.8538 Q2001.36 58.1548 2001.36 49.9314 Q2001.36 41.7081 1997.95 37.0496 Q1994.55 32.3505 1988.64 32.3505 Q1982.72 32.3505 1979.32 37.0496 Q1975.96 41.7081 1975.96 49.9314 Z" fill="#000000" fill-rule="nonzero" fill-opacity="1" /><path clip-path="url(#clip550)" d="M2024.16 27.2059 L2031.62 27.2059 L2031.62 72.576 L2024.16 72.576 L2024.16 27.2059 M2024.16 9.54393 L2031.62 9.54393 L2031.62 18.9825 L2024.16 18.9825 L2024.16 9.54393 Z" fill="#000000" fill-rule="nonzero" fill-opacity="1" /><path clip-path="url(#clip550)" d="M2084.93 45.1919 L2084.93 72.576 L2077.47 72.576 L2077.47 45.4349 Q2077.47 38.994 2074.96 35.7938 Q2072.45 32.5936 2067.43 32.5936 Q2061.39 32.5936 2057.91 36.4419 Q2054.42 40.2903 2054.42 46.9338 L2054.42 72.576 L2046.93 72.576 L2046.93 27.2059 L2054.42 27.2059 L2054.42 34.2544 Q2057.1 30.163 2060.7 28.1376 Q2064.35 26.1121 2069.09 26.1121 Q2076.9 26.1121 2080.92 30.9732 Q2084.93 35.7938 2084.93 45.1919 Z" fill="#000000" fill-rule="nonzero" fill-opacity="1" /><path clip-path="url(#clip550)" d="M2120.41 49.7694 Q2111.38 49.7694 2107.89 51.8354 Q2104.41 53.9013 2104.41 58.8839 Q2104.41 62.8538 2107 65.2034 Q2109.64 67.5124 2114.13 67.5124 Q2120.33 67.5124 2124.06 63.1374 Q2127.82 58.7219 2127.82 51.4303 L2127.82 49.7694 L2120.41 49.7694 M2135.28 46.6907 L2135.28 72.576 L2127.82 72.576 L2127.82 65.6895 Q2125.27 69.8214 2121.46 71.8063 Q2117.66 73.7508 2112.15 73.7508 Q2105.18 73.7508 2101.05 69.8619 Q2096.96 65.9325 2096.96 59.3701 Q2096.96 51.7138 2102.06 47.825 Q2107.21 43.9361 2117.37 43.9361 L2127.82 43.9361 L2127.82 43.2069 Q2127.82 38.0623 2124.42 35.2672 Q2121.06 32.4315 2114.94 32.4315 Q2111.05 32.4315 2107.37 33.3632 Q2103.68 34.295 2100.28 36.1584 L2100.28 29.2718 Q2104.37 27.692 2108.22 26.9223 Q2112.07 26.1121 2115.71 26.1121 Q2125.56 26.1121 2130.42 31.2163 Q2135.28 36.3204 2135.28 46.6907 Z" fill="#000000" fill-rule="nonzero" fill-opacity="1" /><path clip-path="url(#clip550)" d="M2158 14.324 L2158 27.2059 L2173.36 27.2059 L2173.36 32.9987 L2158 32.9987 L2158 57.6282 Q2158 63.1779 2159.5 64.7578 Q2161.04 66.3376 2165.7 66.3376 L2173.36 66.3376 L2173.36 72.576 L2165.7 72.576 Q2157.07 72.576 2153.79 69.3758 Q2150.51 66.1351 2150.51 57.6282 L2150.51 32.9987 L2145.04 32.9987 L2145.04 27.2059 L2150.51 27.2059 L2150.51 14.324 L2158 14.324 Z" fill="#000000" fill-rule="nonzero" fill-opacity="1" /><path clip-path="url(#clip550)" d="M2221.97 48.0275 L2221.97 51.6733 L2187.7 51.6733 Q2188.18 59.3701 2192.31 63.421 Q2196.49 67.4314 2203.9 67.4314 Q2208.19 67.4314 2212.2 66.3781 Q2216.26 65.3249 2220.23 63.2184 L2220.23 70.267 Q2216.22 71.9684 2212 72.8596 Q2207.79 73.7508 2203.45 73.7508 Q2192.6 73.7508 2186.24 67.4314 Q2179.92 61.1119 2179.92 50.3365 Q2179.92 39.1965 2185.91 32.6746 Q2191.95 26.1121 2202.16 26.1121 Q2211.31 26.1121 2216.62 32.0264 Q2221.97 37.9003 2221.97 48.0275 M2214.51 45.84 Q2214.43 39.7232 2211.07 36.0774 Q2207.75 32.4315 2202.24 32.4315 Q2196 32.4315 2192.23 35.9558 Q2188.51 39.4801 2187.94 45.8805 L2214.51 45.84 Z" fill="#000000" fill-rule="nonzero" fill-opacity="1" /><path clip-path="url(#clip550)" d="M2269.08 18.8205 L2269.08 41.5461 L2279.37 41.5461 Q2285.08 41.5461 2288.2 38.5889 Q2291.32 35.6318 2291.32 30.163 Q2291.32 24.7348 2288.2 21.7777 Q2285.08 18.8205 2279.37 18.8205 L2269.08 18.8205 M2260.9 12.096 L2279.37 12.096 Q2289.54 12.096 2294.72 16.714 Q2299.95 21.2916 2299.95 30.163 Q2299.95 39.1155 2294.72 43.6931 Q2289.54 48.2706 2279.37 48.2706 L2269.08 48.2706 L2269.08 72.576 L2260.9 72.576 L2260.9 12.096 Z" fill="#000000" fill-rule="nonzero" fill-opacity="1" /><path clip-path="url(#clip550)" d="M2310.6 9.54393 L2318.05 9.54393 L2318.05 72.576 L2310.6 72.576 L2310.6 9.54393 Z" fill="#000000" fill-rule="nonzero" fill-opacity="1" /><path clip-path="url(#clip550)" d="M2351.23 32.4315 Q2345.24 32.4315 2341.75 37.1306 Q2338.27 41.7891 2338.27 49.9314 Q2338.27 58.0738 2341.71 62.7728 Q2345.2 67.4314 2351.23 67.4314 Q2357.19 67.4314 2360.67 62.7323 Q2364.15 58.0333 2364.15 49.9314 Q2364.15 41.8701 2360.67 37.1711 Q2357.19 32.4315 2351.23 32.4315 M2351.23 26.1121 Q2360.95 26.1121 2366.5 32.4315 Q2372.05 38.7509 2372.05 49.9314 Q2372.05 61.0714 2366.5 67.4314 Q2360.95 73.7508 2351.23 73.7508 Q2341.47 73.7508 2335.92 67.4314 Q2330.41 61.0714 2330.41 49.9314 Q2330.41 38.7509 2335.92 32.4315 Q2341.47 26.1121 2351.23 26.1121 Z" fill="#000000" fill-rule="nonzero" fill-opacity="1" /><path clip-path="url(#clip550)" d="M2391.78 14.324 L2391.78 27.2059 L2407.13 27.2059 L2407.13 32.9987 L2391.78 32.9987 L2391.78 57.6282 Q2391.78 63.1779 2393.28 64.7578 Q2394.82 66.3376 2399.48 66.3376 L2407.13 66.3376 L2407.13 72.576 L2399.48 72.576 Q2390.85 72.576 2387.57 69.3758 Q2384.29 66.1351 2384.29 57.6282 L2384.29 32.9987 L2378.82 32.9987 L2378.82 27.2059 L2384.29 27.2059 L2384.29 14.324 L2391.78 14.324 Z" fill="#000000" fill-rule="nonzero" fill-opacity="1" /><path clip-path="url(#clip552)" d="M804.161 1416.73 L780.161 1464.73 L828.161 1464.73 L804.161 1416.73 Z" fill="#ffc0cb" fill-rule="evenodd" fill-opacity="1" stroke="none"/>
<path clip-path="url(#clip552)" d="M804.161 1171.86 L780.161 1219.86 L828.161 1219.86 L804.161 1171.86 Z" fill="#ffc0cb" fill-rule="evenodd" fill-opacity="1" stroke="none"/>
<path clip-path="url(#clip552)" d="M710.522 926.989 L686.522 974.989 L734.522 974.989 L710.522 926.989 Z" fill="#ffc0cb" fill-rule="evenodd" fill-opacity="1" stroke="none"/>
<path clip-path="url(#clip552)" d="M570.065 1416.73 L546.065 1464.73 L594.065 1464.73 L570.065 1416.73 Z" fill="#ffc0cb" fill-rule="evenodd" fill-opacity="1" stroke="none"/>
<path clip-path="url(#clip552)" d="M570.065 926.989 L546.065 974.989 L594.065 974.989 L570.065 926.989 Z" fill="#ffc0cb" fill-rule="evenodd" fill-opacity="1" stroke="none"/>
<path clip-path="url(#clip552)" d="M335.968 1171.86 L311.968 1219.86 L359.968 1219.86 L335.968 1171.86 Z" fill="#ffc0cb" fill-rule="evenodd" fill-opacity="1" stroke="none"/>
<path clip-path="url(#clip552)" d="M2302.38 2641.09 L2278.38 2689.09 L2326.38 2689.09 L2302.38 2641.09 Z" fill="#ffc0cb" fill-rule="evenodd" fill-opacity="1" stroke="none"/>
<path clip-path="url(#clip552)" d="M2302.38 2396.21 L2278.38 2444.21 L2326.38 2444.21 L2302.38 2396.21 Z" fill="#ffc0cb" fill-rule="evenodd" fill-opacity="1" stroke="none"/>
<path clip-path="url(#clip552)" d="M2115.1 2396.21 L2091.1 2444.21 L2139.1 2444.21 L2115.1 2396.21 Z" fill="#ffc0cb" fill-rule="evenodd" fill-opacity="1" stroke="none"/>
<path clip-path="url(#clip552)" d="M1974.64 2885.96 L1950.64 2933.96 L1998.64 2933.96 L1974.64 2885.96 Z" fill="#ffc0cb" fill-rule="evenodd" fill-opacity="1" stroke="none"/>
<path clip-path="url(#clip552)" d="M3847.41 437.247 L3823.41 485.247 L3871.41 485.247 L3847.41 437.247 Z" fill="#ffc0cb" fill-rule="evenodd" fill-opacity="1" stroke="none"/>
<path clip-path="url(#clip552)" d="M3519.68 192.376 L3495.68 240.376 L3543.68 240.376 L3519.68 192.376 Z" fill="#ffc0cb" fill-rule="evenodd" fill-opacity="1" stroke="none"/>
<path clip-path="url(#clip552)" d="M3379.22 437.247 L3355.22 485.247 L3403.22 485.247 L3379.22 437.247 Z" fill="#ffc0cb" fill-rule="evenodd" fill-opacity="1" stroke="none"/>
<path clip-path="url(#clip552)" d="M3285.58 290.324 L3261.58 338.324 L3309.58 338.324 L3285.58 290.324 Z" fill="#ffc0cb" fill-rule="evenodd" fill-opacity="1" stroke="none"/>
<path clip-path="url(#clip552)" d="M3145.12 437.247 L3121.12 485.247 L3169.12 485.247 L3145.12 437.247 Z" fill="#ffc0cb" fill-rule="evenodd" fill-opacity="1" stroke="none"/>
<circle clip-path="url(#clip552)" cx="1038.26" cy="2371.24" r="14.4" fill="#e26f46" fill-rule="evenodd" fill-opacity="1" stroke="#000000" stroke-opacity="1" stroke-width="6.4"/>
<circle clip-path="url(#clip552)" cx="1740.55" cy="2371.24" r="14.4" fill="#e26f46" fill-rule="evenodd" fill-opacity="1" stroke="#000000" stroke-opacity="1" stroke-width="6.4"/>
<circle clip-path="url(#clip552)" cx="2442.83" cy="2371.24" r="14.4" fill="#e26f46" fill-rule="evenodd" fill-opacity="1" stroke="#000000" stroke-opacity="1" stroke-width="6.4"/>
<circle clip-path="url(#clip552)" cx="3145.12" cy="2371.24" r="14.4" fill="#e26f46" fill-rule="evenodd" fill-opacity="1" stroke="#000000" stroke-opacity="1" stroke-width="6.4"/>
<circle clip-path="url(#clip552)" cx="1038.26" cy="1832.52" r="14.4" fill="#e26f46" fill-rule="evenodd" fill-opacity="1" stroke="#000000" stroke-opacity="1" stroke-width="6.4"/>
<circle clip-path="url(#clip552)" cx="1740.55" cy="1832.52" r="14.4" fill="#e26f46" fill-rule="evenodd" fill-opacity="1" stroke="#000000" stroke-opacity="1" stroke-width="6.4"/>
<circle clip-path="url(#clip552)" cx="2442.83" cy="1832.52" r="14.4" fill="#e26f46" fill-rule="evenodd" fill-opacity="1" stroke="#000000" stroke-opacity="1" stroke-width="6.4"/>
<circle clip-path="url(#clip552)" cx="3145.12" cy="1832.52" r="14.4" fill="#e26f46" fill-rule="evenodd" fill-opacity="1" stroke="#000000" stroke-opacity="1" stroke-width="6.4"/>
<circle clip-path="url(#clip552)" cx="1038.26" cy="1293.81" r="14.4" fill="#e26f46" fill-rule="evenodd" fill-opacity="1" stroke="#000000" stroke-opacity="1" stroke-width="6.4"/>
<circle clip-path="url(#clip552)" cx="1740.55" cy="1293.81" r="14.4" fill="#e26f46" fill-rule="evenodd" fill-opacity="1" stroke="#000000" stroke-opacity="1" stroke-width="6.4"/>
<circle clip-path="url(#clip552)" cx="2442.83" cy="1293.81" r="14.4" fill="#e26f46" fill-rule="evenodd" fill-opacity="1" stroke="#000000" stroke-opacity="1" stroke-width="6.4"/>
<circle clip-path="url(#clip552)" cx="3145.12" cy="1293.81" r="14.4" fill="#e26f46" fill-rule="evenodd" fill-opacity="1" stroke="#000000" stroke-opacity="1" stroke-width="6.4"/>
<circle clip-path="url(#clip552)" cx="1038.26" cy="755.092" r="14.4" fill="#e26f46" fill-rule="evenodd" fill-opacity="1" stroke="#000000" stroke-opacity="1" stroke-width="6.4"/>
<circle clip-path="url(#clip552)" cx="1740.55" cy="755.092" r="14.4" fill="#e26f46" fill-rule="evenodd" fill-opacity="1" stroke="#000000" stroke-opacity="1" stroke-width="6.4"/>
<circle clip-path="url(#clip552)" cx="2442.83" cy="755.092" r="14.4" fill="#e26f46" fill-rule="evenodd" fill-opacity="1" stroke="#000000" stroke-opacity="1" stroke-width="6.4"/>
<circle clip-path="url(#clip552)" cx="3145.12" cy="755.092" r="14.4" fill="#e26f46" fill-rule="evenodd" fill-opacity="1" stroke="#000000" stroke-opacity="1" stroke-width="6.4"/>
<circle clip-path="url(#clip552)" cx="2208.74" cy="706.118" r="28.8" fill="#ffff00" fill-rule="evenodd" fill-opacity="1" stroke="#000000" stroke-opacity="1" stroke-width="6.4"/>
<circle clip-path="url(#clip552)" cx="1038.26" cy="2371.24" r="21.6" fill="#ffffff" fill-rule="evenodd" fill-opacity="1" stroke="#000000" stroke-opacity="1" stroke-width="6.4"/>
<circle clip-path="url(#clip552)" cx="1740.55" cy="2371.24" r="28.8" fill="#add8e6" fill-rule="evenodd" fill-opacity="1" stroke="#000000" stroke-opacity="1" stroke-width="6.4"/>
<circle clip-path="url(#clip552)" cx="2442.83" cy="2371.24" r="21.6" fill="#ffffff" fill-rule="evenodd" fill-opacity="1" stroke="#000000" stroke-opacity="1" stroke-width="6.4"/>
<circle clip-path="url(#clip552)" cx="3145.12" cy="2371.24" r="28.8" fill="#add8e6" fill-rule="evenodd" fill-opacity="1" stroke="#000000" stroke-opacity="1" stroke-width="6.4"/>
<circle clip-path="url(#clip552)" cx="1038.26" cy="1832.52" r="28.8" fill="#add8e6" fill-rule="evenodd" fill-opacity="1" stroke="#000000" stroke-opacity="1" stroke-width="6.4"/>
<circle clip-path="url(#clip552)" cx="1740.55" cy="1832.52" r="28.8" fill="#add8e6" fill-rule="evenodd" fill-opacity="1" stroke="#000000" stroke-opacity="1" stroke-width="6.4"/>
<circle clip-path="url(#clip552)" cx="2442.83" cy="1832.52" r="21.6" fill="#ffffff" fill-rule="evenodd" fill-opacity="1" stroke="#000000" stroke-opacity="1" stroke-width="6.4"/>
<circle clip-path="url(#clip552)" cx="3145.12" cy="1832.52" r="21.6" fill="#ffffff" fill-rule="evenodd" fill-opacity="1" stroke="#000000" stroke-opacity="1" stroke-width="6.4"/>
<circle clip-path="url(#clip552)" cx="1038.26" cy="1293.81" r="28.8" fill="#add8e6" fill-rule="evenodd" fill-opacity="1" stroke="#000000" stroke-opacity="1" stroke-width="6.4"/>
<circle clip-path="url(#clip552)" cx="1740.55" cy="1293.81" r="21.6" fill="#ffffff" fill-rule="evenodd" fill-opacity="1" stroke="#000000" stroke-opacity="1" stroke-width="6.4"/>
<circle clip-path="url(#clip552)" cx="2442.83" cy="1293.81" r="28.8" fill="#add8e6" fill-rule="evenodd" fill-opacity="1" stroke="#000000" stroke-opacity="1" stroke-width="6.4"/>
<circle clip-path="url(#clip552)" cx="3145.12" cy="1293.81" r="28.8" fill="#add8e6" fill-rule="evenodd" fill-opacity="1" stroke="#000000" stroke-opacity="1" stroke-width="6.4"/>
<circle clip-path="url(#clip552)" cx="1038.26" cy="755.092" r="28.8" fill="#add8e6" fill-rule="evenodd" fill-opacity="1" stroke="#000000" stroke-opacity="1" stroke-width="6.4"/>
<circle clip-path="url(#clip552)" cx="1740.55" cy="755.092" r="28.8" fill="#add8e6" fill-rule="evenodd" fill-opacity="1" stroke="#000000" stroke-opacity="1" stroke-width="6.4"/>
<circle clip-path="url(#clip552)" cx="2442.83" cy="755.092" r="21.6" fill="#ffffff" fill-rule="evenodd" fill-opacity="1" stroke="#000000" stroke-opacity="1" stroke-width="6.4"/>
<circle clip-path="url(#clip552)" cx="3145.12" cy="755.092" r="28.8" fill="#add8e6" fill-rule="evenodd" fill-opacity="1" stroke="#000000" stroke-opacity="1" stroke-width="6.4"/>
<polyline clip-path="url(#clip552)" style="stroke:#000000; stroke-linecap:round; stroke-linejoin:round; stroke-width:4; stroke-opacity:1; fill:none" stroke-dasharray="16, 10" points="2208.74,706.118 3145.12,755.092 "/>
<polyline clip-path="url(#clip552)" style="stroke:#000000; stroke-linecap:round; stroke-linejoin:round; stroke-width:4; stroke-opacity:1; fill:none" points="3086.77,721.999 3145.12,755.092 3083.64,781.917 "/>
<polyline clip-path="url(#clip552)" style="stroke:#000000; stroke-linecap:round; stroke-linejoin:round; stroke-width:4; stroke-opacity:1; fill:none" stroke-dasharray="16, 10" points="3145.12,755.092 2208.74,706.118 "/>
<polyline clip-path="url(#clip552)" style="stroke:#000000; stroke-linecap:round; stroke-linejoin:round; stroke-width:4; stroke-opacity:1; fill:none" stroke-dasharray="16, 10" points="1740.55,1832.52 1038.26,1293.81 "/>
<polyline clip-path="url(#clip552)" style="stroke:#000000; stroke-linecap:round; stroke-linejoin:round; stroke-width:4; stroke-opacity:1; fill:none" points="1067.6,1354.13 1038.26,1293.81 1104.12,1306.52 "/>
<polyline clip-path="url(#clip552)" style="stroke:#000000; stroke-linecap:round; stroke-linejoin:round; stroke-width:4; stroke-opacity:1; fill:none" stroke-dasharray="16, 10" points="1038.26,1293.81 1740.55,1832.52 "/>
<polyline clip-path="url(#clip552)" style="stroke:#cf6d7b; stroke-linecap:round; stroke-linejoin:round; stroke-width:4; stroke-opacity:1; fill:none" points="1740.55,1832.52 2302.38,2420.21 "/>
<polyline clip-path="url(#clip552)" style="stroke:#cf6d7b; stroke-linecap:round; stroke-linejoin:round; stroke-width:4; stroke-opacity:1; fill:none" points="2282.6,2356.11 2302.38,2420.21 2239.23,2397.58 "/>
<polyline clip-path="url(#clip552)" style="stroke:#cf6d7b; stroke-linecap:round; stroke-linejoin:round; stroke-width:4; stroke-opacity:1; fill:none" points="2302.38,2420.21 1740.55,1832.52 "/>
<polyline clip-path="url(#clip552)" style="stroke:#cf6d7b; stroke-linecap:round; stroke-linejoin:round; stroke-width:4; stroke-opacity:1; fill:none" points="2302.38,2420.21 2302.38,2665.09 "/>
<polyline clip-path="url(#clip552)" style="stroke:#cf6d7b; stroke-linecap:round; stroke-linejoin:round; stroke-width:4; stroke-opacity:1; fill:none" points="2332.38,2605.09 2302.38,2665.09 2272.38,2605.09 "/>
<polyline clip-path="url(#clip552)" style="stroke:#cf6d7b; stroke-linecap:round; stroke-linejoin:round; stroke-width:4; stroke-opacity:1; fill:none" points="2302.38,2665.09 2302.38,2420.21 "/>
<polyline clip-path="url(#clip552)" style="stroke:#cf6d7b; stroke-linecap:round; stroke-linejoin:round; stroke-width:4; stroke-opacity:1; fill:none" points="2302.38,2665.09 1974.64,2909.96 "/>
<polyline clip-path="url(#clip552)" style="stroke:#cf6d7b; stroke-linecap:round; stroke-linejoin:round; stroke-width:4; stroke-opacity:1; fill:none" points="2040.66,2898.08 1974.64,2909.96 2004.75,2850.01 "/>
<polyline clip-path="url(#clip552)" style="stroke:#cf6d7b; stroke-linecap:round; stroke-linejoin:round; stroke-width:4; stroke-opacity:1; fill:none" points="1974.64,2909.96 2302.38,2665.09 "/>
<polyline clip-path="url(#clip552)" style="stroke:#cf6d7b; stroke-linecap:round; stroke-linejoin:round; stroke-width:4; stroke-opacity:1; fill:none" points="1974.64,2909.96 2115.1,2420.21 "/>
<polyline clip-path="url(#clip552)" style="stroke:#cf6d7b; stroke-linecap:round; stroke-linejoin:round; stroke-width:4; stroke-opacity:1; fill:none" points="2069.72,2469.62 2115.1,2420.21 2127.4,2486.16 "/>
<polyline clip-path="url(#clip552)" style="stroke:#cf6d7b; stroke-linecap:round; stroke-linejoin:round; stroke-width:4; stroke-opacity:1; fill:none" points="2115.1,2420.21 1974.64,2909.96 "/>
<polyline clip-path="url(#clip552)" style="stroke:#cf6d7b; stroke-linecap:round; stroke-linejoin:round; stroke-width:4; stroke-opacity:1; fill:none" points="2115.1,2420.21 1740.55,1832.52 "/>
<polyline clip-path="url(#clip552)" style="stroke:#cf6d7b; stroke-linecap:round; stroke-linejoin:round; stroke-width:4; stroke-opacity:1; fill:none" points="1747.49,1899.25 1740.55,1832.52 1798.09,1867 "/>
<polyline clip-path="url(#clip552)" style="stroke:#cf6d7b; stroke-linecap:round; stroke-linejoin:round; stroke-width:4; stroke-opacity:1; fill:none" points="1740.55,1832.52 2115.1,2420.21 "/>
<polyline clip-path="url(#clip552)" style="stroke:#000000; stroke-linecap:round; stroke-linejoin:round; stroke-width:4; stroke-opacity:1; fill:none" stroke-dasharray="16, 10" points="1038.26,1293.81 2208.74,706.118 "/>
<polyline clip-path="url(#clip552)" style="stroke:#000000; stroke-linecap:round; stroke-linejoin:round; stroke-width:4; stroke-opacity:1; fill:none" points="2141.66,706.23 2208.74,706.118 2168.58,759.85 "/>
<polyline clip-path="url(#clip552)" style="stroke:#000000; stroke-linecap:round; stroke-linejoin:round; stroke-width:4; stroke-opacity:1; fill:none" stroke-dasharray="16, 10" points="2208.74,706.118 1038.26,1293.81 "/>
<polyline clip-path="url(#clip552)" style="stroke:#dfa9aa; stroke-linecap:round; stroke-linejoin:round; stroke-width:4; stroke-opacity:1; fill:none" points="1038.26,1293.81 804.161,1440.73 "/>
<polyline clip-path="url(#clip552)" style="stroke:#dfa9aa; stroke-linecap:round; stroke-linejoin:round; stroke-width:4; stroke-opacity:1; fill:none" points="870.929,1434.25 804.161,1440.73 839.033,1383.42 "/>
<polyline clip-path="url(#clip552)" style="stroke:#dfa9aa; stroke-linecap:round; stroke-linejoin:round; stroke-width:4; stroke-opacity:1; fill:none" points="804.161,1440.73 1038.26,1293.81 "/>
<polyline clip-path="url(#clip552)" style="stroke:#dfa9aa; stroke-linecap:round; stroke-linejoin:round; stroke-width:4; stroke-opacity:1; fill:none" points="804.161,1440.73 570.065,1440.73 "/>
<polyline clip-path="url(#clip552)" style="stroke:#dfa9aa; stroke-linecap:round; stroke-linejoin:round; stroke-width:4; stroke-opacity:1; fill:none" points="630.065,1470.73 570.065,1440.73 630.065,1410.73 "/>
<polyline clip-path="url(#clip552)" style="stroke:#dfa9aa; stroke-linecap:round; stroke-linejoin:round; stroke-width:4; stroke-opacity:1; fill:none" points="570.065,1440.73 804.161,1440.73 "/>
<polyline clip-path="url(#clip552)" style="stroke:#dfa9aa; stroke-linecap:round; stroke-linejoin:round; stroke-width:4; stroke-opacity:1; fill:none" points="570.065,1440.73 335.968,1195.86 "/>
<polyline clip-path="url(#clip552)" style="stroke:#dfa9aa; stroke-linecap:round; stroke-linejoin:round; stroke-width:4; stroke-opacity:1; fill:none" points="355.745,1259.96 335.968,1195.86 399.115,1218.5 "/>
<polyline clip-path="url(#clip552)" style="stroke:#dfa9aa; stroke-linecap:round; stroke-linejoin:round; stroke-width:4; stroke-opacity:1; fill:none" points="335.968,1195.86 570.065,1440.73 "/>
<polyline clip-path="url(#clip552)" style="stroke:#dfa9aa; stroke-linecap:round; stroke-linejoin:round; stroke-width:4; stroke-opacity:1; fill:none" points="335.968,1195.86 570.065,950.989 "/>
<polyline clip-path="url(#clip552)" style="stroke:#dfa9aa; stroke-linecap:round; stroke-linejoin:round; stroke-width:4; stroke-opacity:1; fill:none" points="506.918,973.628 570.065,950.989 550.288,1015.09 "/>
<polyline clip-path="url(#clip552)" style="stroke:#dfa9aa; stroke-linecap:round; stroke-linejoin:round; stroke-width:4; stroke-opacity:1; fill:none" points="570.065,950.989 335.968,1195.86 "/>
<polyline clip-path="url(#clip552)" style="stroke:#dfa9aa; stroke-linecap:round; stroke-linejoin:round; stroke-width:4; stroke-opacity:1; fill:none" points="570.065,950.989 710.522,950.989 "/>
<polyline clip-path="url(#clip552)" style="stroke:#dfa9aa; stroke-linecap:round; stroke-linejoin:round; stroke-width:4; stroke-opacity:1; fill:none" points="650.522,920.989 710.522,950.989 650.522,980.989 "/>
<polyline clip-path="url(#clip552)" style="stroke:#dfa9aa; stroke-linecap:round; stroke-linejoin:round; stroke-width:4; stroke-opacity:1; fill:none" points="710.522,950.989 570.065,950.989 "/>
<polyline clip-path="url(#clip552)" style="stroke:#dfa9aa; stroke-linecap:round; stroke-linejoin:round; stroke-width:4; stroke-opacity:1; fill:none" points="710.522,950.989 1038.26,1293.81 "/>
<polyline clip-path="url(#clip552)" style="stroke:#dfa9aa; stroke-linecap:round; stroke-linejoin:round; stroke-width:4; stroke-opacity:1; fill:none" points="1018.48,1229.71 1038.26,1293.81 975.111,1271.17 "/>
<polyline clip-path="url(#clip552)" style="stroke:#dfa9aa; stroke-linecap:round; stroke-linejoin:round; stroke-width:4; stroke-opacity:1; fill:none" points="1038.26,1293.81 710.522,950.989 "/>
<polyline clip-path="url(#clip552)" style="stroke:#911ef2; stroke-linecap:round; stroke-linejoin:round; stroke-width:4; stroke-opacity:1; fill:none" points="1038.26,1293.81 804.161,1195.86 "/>
<polyline clip-path="url(#clip552)" style="stroke:#911ef2; stroke-linecap:round; stroke-linejoin:round; stroke-width:4; stroke-opacity:1; fill:none" points="847.932,1246.69 804.161,1195.86 871.091,1191.34 "/>
<polyline clip-path="url(#clip552)" style="stroke:#911ef2; stroke-linecap:round; stroke-linejoin:round; stroke-width:4; stroke-opacity:1; fill:none" points="804.161,1195.86 1038.26,1293.81 "/>
<polyline clip-path="url(#clip552)" style="stroke:#911ef2; stroke-linecap:round; stroke-linejoin:round; stroke-width:4; stroke-opacity:1; fill:none" points="804.161,1195.86 1038.26,1293.81 "/>
<polyline clip-path="url(#clip552)" style="stroke:#911ef2; stroke-linecap:round; stroke-linejoin:round; stroke-width:4; stroke-opacity:1; fill:none" points="994.486,1242.97 1038.26,1293.81 971.327,1298.32 "/>
<polyline clip-path="url(#clip552)" style="stroke:#911ef2; stroke-linecap:round; stroke-linejoin:round; stroke-width:4; stroke-opacity:1; fill:none" points="1038.26,1293.81 804.161,1195.86 "/>
<polyline clip-path="url(#clip552)" style="stroke:#000000; stroke-linecap:round; stroke-linejoin:round; stroke-width:4; stroke-opacity:1; fill:none" stroke-dasharray="16, 10" points="3145.12,755.092 1740.55,1832.52 "/>
<polyline clip-path="url(#clip552)" style="stroke:#000000; stroke-linecap:round; stroke-linejoin:round; stroke-width:4; stroke-opacity:1; fill:none" points="1806.41,1819.81 1740.55,1832.52 1769.89,1772.2 "/>
<polyline clip-path="url(#clip552)" style="stroke:#000000; stroke-linecap:round; stroke-linejoin:round; stroke-width:4; stroke-opacity:1; fill:none" stroke-dasharray="16, 10" points="1740.55,1832.52 3145.12,755.092 "/>
<polyline clip-path="url(#clip552)" style="stroke:#ee86d9; stroke-linecap:round; stroke-linejoin:round; stroke-width:4; stroke-opacity:1; fill:none" points="3145.12,755.092 3145.12,461.247 "/>
<polyline clip-path="url(#clip552)" style="stroke:#ee86d9; stroke-linecap:round; stroke-linejoin:round; stroke-width:4; stroke-opacity:1; fill:none" points="3115.12,521.247 3145.12,461.247 3175.12,521.247 "/>
<polyline clip-path="url(#clip552)" style="stroke:#ee86d9; stroke-linecap:round; stroke-linejoin:round; stroke-width:4; stroke-opacity:1; fill:none" points="3145.12,461.247 3145.12,755.092 "/>
<polyline clip-path="url(#clip552)" style="stroke:#ee86d9; stroke-linecap:round; stroke-linejoin:round; stroke-width:4; stroke-opacity:1; fill:none" points="3145.12,461.247 3379.22,461.247 "/>
<polyline clip-path="url(#clip552)" style="stroke:#ee86d9; stroke-linecap:round; stroke-linejoin:round; stroke-width:4; stroke-opacity:1; fill:none" points="3319.22,431.247 3379.22,461.247 3319.22,491.247 "/>
<polyline clip-path="url(#clip552)" style="stroke:#ee86d9; stroke-linecap:round; stroke-linejoin:round; stroke-width:4; stroke-opacity:1; fill:none" points="3379.22,461.247 3145.12,461.247 "/>
<polyline clip-path="url(#clip552)" style="stroke:#ee86d9; stroke-linecap:round; stroke-linejoin:round; stroke-width:4; stroke-opacity:1; fill:none" points="3379.22,461.247 3847.41,461.247 "/>
<polyline clip-path="url(#clip552)" style="stroke:#ee86d9; stroke-linecap:round; stroke-linejoin:round; stroke-width:4; stroke-opacity:1; fill:none" points="3787.41,431.247 3847.41,461.247 3787.41,491.247 "/>
<polyline clip-path="url(#clip552)" style="stroke:#ee86d9; stroke-linecap:round; stroke-linejoin:round; stroke-width:4; stroke-opacity:1; fill:none" points="3847.41,461.247 3379.22,461.247 "/>
<polyline clip-path="url(#clip552)" style="stroke:#ee86d9; stroke-linecap:round; stroke-linejoin:round; stroke-width:4; stroke-opacity:1; fill:none" points="3847.41,461.247 3519.68,216.376 "/>
<polyline clip-path="url(#clip552)" style="stroke:#ee86d9; stroke-linecap:round; stroke-linejoin:round; stroke-width:4; stroke-opacity:1; fill:none" points="3549.79,276.321 3519.68,216.376 3585.7,228.255 "/>
<polyline clip-path="url(#clip552)" style="stroke:#ee86d9; stroke-linecap:round; stroke-linejoin:round; stroke-width:4; stroke-opacity:1; fill:none" points="3519.68,216.376 3847.41,461.247 "/>
<polyline clip-path="url(#clip552)" style="stroke:#ee86d9; stroke-linecap:round; stroke-linejoin:round; stroke-width:4; stroke-opacity:1; fill:none" points="3519.68,216.376 3285.58,314.324 "/>
<polyline clip-path="url(#clip552)" style="stroke:#ee86d9; stroke-linecap:round; stroke-linejoin:round; stroke-width:4; stroke-opacity:1; fill:none" points="3352.51,318.84 3285.58,314.324 3329.35,263.49 "/>
<polyline clip-path="url(#clip552)" style="stroke:#ee86d9; stroke-linecap:round; stroke-linejoin:round; stroke-width:4; stroke-opacity:1; fill:none" points="3285.58,314.324 3519.68,216.376 "/>
<polyline clip-path="url(#clip552)" style="stroke:#ee86d9; stroke-linecap:round; stroke-linejoin:round; stroke-width:4; stroke-opacity:1; fill:none" points="3285.58,314.324 3145.12,755.092 "/>
<polyline clip-path="url(#clip552)" style="stroke:#ee86d9; stroke-linecap:round; stroke-linejoin:round; stroke-width:4; stroke-opacity:1; fill:none" points="3191.92,707.033 3145.12,755.092 3134.76,688.816 "/>
<polyline clip-path="url(#clip552)" style="stroke:#ee86d9; stroke-linecap:round; stroke-linejoin:round; stroke-width:4; stroke-opacity:1; fill:none" points="3145.12,755.092 3285.58,314.324 "/>
</svg>
