<?xml version="1.0" encoding="utf-8"?>
<svg xmlns="http://www.w3.org/2000/svg" xmlns:xlink="http://www.w3.org/1999/xlink" width="1000" height="800" viewBox="0 0 4000 3200">
<defs>
  <clipPath id="clip800">
    <rect x="0" y="0" width="4000" height="3200"/>
  </clipPath>
</defs>
<path clip-path="url(#clip800)" d="M0 3200 L4000 3200 L4000 0 L0 0  Z" fill="#ffffff" fill-rule="evenodd" fill-opacity="1"/>
<defs>
  <clipPath id="clip801">
    <rect x="800" y="0" width="2801" height="2801"/>
  </clipPath>
</defs>
<path clip-path="url(#clip800)" d="M230.625 2990.76 L3952.76 2990.76 L3952.76 135.568 L230.625 135.568  Z" fill="#ffffff" fill-rule="evenodd" fill-opacity="1"/>
<defs>
  <clipPath id="clip802">
    <rect x="230" y="135" width="3723" height="2856"/>
  </clipPath>
</defs>
<polyline clip-path="url(#clip802)" style="stroke:#000000; stroke-linecap:round; stroke-linejoin:round; stroke-width:2; stroke-opacity:0.1; fill:none" points="335.968,2990.76 335.968,135.568 "/>
<polyline clip-path="url(#clip802)" style="stroke:#000000; stroke-linecap:round; stroke-linejoin:round; stroke-width:2; stroke-opacity:0.1; fill:none" points="1075.22,2990.76 1075.22,135.568 "/>
<polyline clip-path="url(#clip802)" style="stroke:#000000; stroke-linecap:round; stroke-linejoin:round; stroke-width:2; stroke-opacity:0.1; fill:none" points="1814.47,2990.76 1814.47,135.568 "/>
<polyline clip-path="url(#clip802)" style="stroke:#000000; stroke-linecap:round; stroke-linejoin:round; stroke-width:2; stroke-opacity:0.1; fill:none" points="2553.72,2990.76 2553.72,135.568 "/>
<polyline clip-path="url(#clip802)" style="stroke:#000000; stroke-linecap:round; stroke-linejoin:round; stroke-width:2; stroke-opacity:0.1; fill:none" points="3292.97,2990.76 3292.97,135.568 "/>
<polyline clip-path="url(#clip802)" style="stroke:#000000; stroke-linecap:round; stroke-linejoin:round; stroke-width:2; stroke-opacity:0.1; fill:none" points="230.625,2404.91 3952.76,2404.91 "/>
<polyline clip-path="url(#clip802)" style="stroke:#000000; stroke-linecap:round; stroke-linejoin:round; stroke-width:2; stroke-opacity:0.1; fill:none" points="230.625,1731.51 3952.76,1731.51 "/>
<polyline clip-path="url(#clip802)" style="stroke:#000000; stroke-linecap:round; stroke-linejoin:round; stroke-width:2; stroke-opacity:0.1; fill:none" points="230.625,1058.12 3952.76,1058.12 "/>
<polyline clip-path="url(#clip802)" style="stroke:#000000; stroke-linecap:round; stroke-linejoin:round; stroke-width:2; stroke-opacity:0.1; fill:none" points="230.625,384.724 3952.76,384.724 "/>
<polyline clip-path="url(#clip800)" style="stroke:#000000; stroke-linecap:round; stroke-linejoin:round; stroke-width:4; stroke-opacity:1; fill:none" points="230.625,2990.76 3952.76,2990.76 "/>
<polyline clip-path="url(#clip800)" style="stroke:#000000; stroke-linecap:round; stroke-linejoin:round; stroke-width:4; stroke-opacity:1; fill:none" points="335.968,2990.76 335.968,2971.87 "/>
<polyline clip-path="url(#clip800)" style="stroke:#000000; stroke-linecap:round; stroke-linejoin:round; stroke-width:4; stroke-opacity:1; fill:none" points="1075.22,2990.76 1075.22,2971.87 "/>
<polyline clip-path="url(#clip800)" style="stroke:#000000; stroke-linecap:round; stroke-linejoin:round; stroke-width:4; stroke-opacity:1; fill:none" points="1814.47,2990.76 1814.47,2971.87 "/>
<polyline clip-path="url(#clip800)" style="stroke:#000000; stroke-linecap:round; stroke-linejoin:round; stroke-width:4; stroke-opacity:1; fill:none" points="2553.72,2990.76 2553.72,2971.87 "/>
<polyline clip-path="url(#clip800)" style="stroke:#000000; stroke-linecap:round; stroke-linejoin:round; stroke-width:4; stroke-opacity:1; fill:none" points="3292.97,2990.76 3292.97,2971.87 "/>
<path clip-path="url(#clip800)" d="M335.968 3034.48 Q332.357 3034.48 330.529 3038.05 Q328.723 3041.59 328.723 3048.72 Q328.723 3055.83 330.529 3059.39 Q332.357 3062.93 335.968 3062.93 Q339.603 3062.93 341.408 3059.39 Q343.237 3055.83 343.237 3048.72 Q343.237 3041.59 341.408 3038.05 Q339.603 3034.48 335.968 3034.48 M335.968 3030.78 Q341.778 3030.78 344.834 3035.39 Q347.913 3039.97 347.913 3048.72 Q347.913 3057.45 344.834 3062.05 Q341.778 3066.64 335.968 3066.64 Q330.158 3066.64 327.079 3062.05 Q324.024 3057.45 324.024 3048.72 Q324.024 3039.97 327.079 3035.39 Q330.158 3030.78 335.968 3030.78 Z" fill="#000000" fill-rule="nonzero" fill-opacity="1" /><path clip-path="url(#clip800)" d="M1053.99 3062.03 L1070.31 3062.03 L1070.31 3065.96 L1048.37 3065.96 L1048.37 3062.03 Q1051.03 3059.27 1055.61 3054.64 Q1060.22 3049.99 1061.4 3048.65 Q1063.65 3046.13 1064.53 3044.39 Q1065.43 3042.63 1065.43 3040.94 Q1065.43 3038.19 1063.48 3036.45 Q1061.56 3034.71 1058.46 3034.71 Q1056.26 3034.71 1053.81 3035.48 Q1051.38 3036.24 1048.6 3037.79 L1048.6 3033.07 Q1051.42 3031.94 1053.88 3031.36 Q1056.33 3030.78 1058.37 3030.78 Q1063.74 3030.78 1066.93 3033.46 Q1070.13 3036.15 1070.13 3040.64 Q1070.13 3042.77 1069.32 3044.69 Q1068.53 3046.59 1066.42 3049.18 Q1065.84 3049.85 1062.74 3053.07 Q1059.64 3056.26 1053.99 3062.03 Z" fill="#000000" fill-rule="nonzero" fill-opacity="1" /><path clip-path="url(#clip800)" d="M1090.13 3034.48 Q1086.52 3034.48 1084.69 3038.05 Q1082.88 3041.59 1082.88 3048.72 Q1082.88 3055.83 1084.69 3059.39 Q1086.52 3062.93 1090.13 3062.93 Q1093.76 3062.93 1095.57 3059.39 Q1097.4 3055.83 1097.4 3048.72 Q1097.4 3041.59 1095.57 3038.05 Q1093.76 3034.48 1090.13 3034.48 M1090.13 3030.78 Q1095.94 3030.78 1098.99 3035.39 Q1102.07 3039.97 1102.07 3048.72 Q1102.07 3057.45 1098.99 3062.05 Q1095.94 3066.64 1090.13 3066.64 Q1084.32 3066.64 1081.24 3062.05 Q1078.18 3057.45 1078.18 3048.72 Q1078.18 3039.97 1081.24 3035.39 Q1084.32 3030.78 1090.13 3030.78 Z" fill="#000000" fill-rule="nonzero" fill-opacity="1" /><path clip-path="url(#clip800)" d="M1802.64 3035.48 L1790.84 3053.93 L1802.64 3053.93 L1802.64 3035.48 M1801.42 3031.4 L1807.3 3031.4 L1807.3 3053.93 L1812.23 3053.93 L1812.23 3057.82 L1807.3 3057.82 L1807.3 3065.96 L1802.64 3065.96 L1802.64 3057.82 L1787.04 3057.82 L1787.04 3053.3 L1801.42 3031.4 Z" fill="#000000" fill-rule="nonzero" fill-opacity="1" /><path clip-path="url(#clip800)" d="M1829.96 3034.48 Q1826.35 3034.48 1824.52 3038.05 Q1822.71 3041.59 1822.71 3048.72 Q1822.71 3055.83 1824.52 3059.39 Q1826.35 3062.93 1829.96 3062.93 Q1833.59 3062.93 1835.4 3059.39 Q1837.23 3055.83 1837.23 3048.72 Q1837.23 3041.59 1835.4 3038.05 Q1833.59 3034.48 1829.96 3034.48 M1829.96 3030.78 Q1835.77 3030.78 1838.82 3035.39 Q1841.9 3039.97 1841.9 3048.72 Q1841.9 3057.45 1838.82 3062.05 Q1835.77 3066.64 1829.96 3066.64 Q1824.15 3066.64 1821.07 3062.05 Q1818.01 3057.45 1818.01 3048.72 Q1818.01 3039.97 1821.07 3035.39 Q1824.15 3030.78 1829.96 3030.78 Z" fill="#000000" fill-rule="nonzero" fill-opacity="1" /><path clip-path="url(#clip800)" d="M2539.13 3046.82 Q2535.98 3046.82 2534.13 3048.97 Q2532.3 3051.13 2532.3 3054.88 Q2532.3 3058.6 2534.13 3060.78 Q2535.98 3062.93 2539.13 3062.93 Q2542.28 3062.93 2544.1 3060.78 Q2545.96 3058.6 2545.96 3054.88 Q2545.96 3051.13 2544.1 3048.97 Q2542.28 3046.82 2539.13 3046.82 M2548.41 3032.17 L2548.41 3036.43 Q2546.65 3035.59 2544.85 3035.15 Q2543.06 3034.71 2541.3 3034.71 Q2536.67 3034.71 2534.22 3037.84 Q2531.79 3040.96 2531.44 3047.28 Q2532.81 3045.27 2534.87 3044.2 Q2536.93 3043.12 2539.41 3043.12 Q2544.61 3043.12 2547.62 3046.29 Q2550.66 3049.44 2550.66 3054.88 Q2550.66 3060.2 2547.51 3063.42 Q2544.36 3066.64 2539.13 3066.64 Q2533.13 3066.64 2529.96 3062.05 Q2526.79 3057.45 2526.79 3048.72 Q2526.79 3040.52 2530.68 3035.66 Q2534.57 3030.78 2541.12 3030.78 Q2542.88 3030.78 2544.66 3031.13 Q2546.47 3031.47 2548.41 3032.17 Z" fill="#000000" fill-rule="nonzero" fill-opacity="1" /><path clip-path="url(#clip800)" d="M2568.71 3034.48 Q2565.1 3034.48 2563.27 3038.05 Q2561.47 3041.59 2561.47 3048.72 Q2561.47 3055.83 2563.27 3059.39 Q2565.1 3062.93 2568.71 3062.93 Q2572.35 3062.93 2574.15 3059.39 Q2575.98 3055.83 2575.98 3048.72 Q2575.98 3041.59 2574.15 3038.05 Q2572.35 3034.48 2568.71 3034.48 M2568.71 3030.78 Q2574.52 3030.78 2577.58 3035.39 Q2580.66 3039.97 2580.66 3048.72 Q2580.66 3057.45 2577.58 3062.05 Q2574.52 3066.64 2568.71 3066.64 Q2562.9 3066.64 2559.82 3062.05 Q2556.77 3057.45 2556.77 3048.72 Q2556.77 3039.97 2559.82 3035.39 Q2562.9 3030.78 2568.71 3030.78 Z" fill="#000000" fill-rule="nonzero" fill-opacity="1" /><path clip-path="url(#clip800)" d="M3277.85 3049.55 Q3274.51 3049.55 3272.59 3051.33 Q3270.69 3053.12 3270.69 3056.24 Q3270.69 3059.37 3272.59 3061.15 Q3274.51 3062.93 3277.85 3062.93 Q3281.18 3062.93 3283.1 3061.15 Q3285.02 3059.34 3285.02 3056.24 Q3285.02 3053.12 3283.1 3051.33 Q3281.2 3049.55 3277.85 3049.55 M3273.17 3047.56 Q3270.16 3046.82 3268.47 3044.76 Q3266.81 3042.7 3266.81 3039.74 Q3266.81 3035.59 3269.74 3033.19 Q3272.71 3030.78 3277.85 3030.78 Q3283.01 3030.78 3285.95 3033.19 Q3288.89 3035.59 3288.89 3039.74 Q3288.89 3042.7 3287.2 3044.76 Q3285.53 3046.82 3282.55 3047.56 Q3285.93 3048.35 3287.8 3050.64 Q3289.7 3052.93 3289.7 3056.24 Q3289.7 3061.26 3286.62 3063.95 Q3283.56 3066.64 3277.85 3066.64 Q3272.13 3066.64 3269.05 3063.95 Q3265.99 3061.26 3265.99 3056.24 Q3265.99 3052.93 3267.89 3050.64 Q3269.79 3048.35 3273.17 3047.56 M3271.46 3040.18 Q3271.46 3042.86 3273.12 3044.37 Q3274.81 3045.87 3277.85 3045.87 Q3280.86 3045.87 3282.55 3044.37 Q3284.26 3042.86 3284.26 3040.18 Q3284.26 3037.49 3282.55 3035.99 Q3280.86 3034.48 3277.85 3034.48 Q3274.81 3034.48 3273.12 3035.99 Q3271.46 3037.49 3271.46 3040.18 Z" fill="#000000" fill-rule="nonzero" fill-opacity="1" /><path clip-path="url(#clip800)" d="M3308.01 3034.48 Q3304.4 3034.48 3302.57 3038.05 Q3300.76 3041.59 3300.76 3048.72 Q3300.76 3055.83 3302.57 3059.39 Q3304.4 3062.93 3308.01 3062.93 Q3311.64 3062.93 3313.45 3059.39 Q3315.28 3055.83 3315.28 3048.72 Q3315.28 3041.59 3313.45 3038.05 Q3311.64 3034.48 3308.01 3034.48 M3308.01 3030.78 Q3313.82 3030.78 3316.87 3035.39 Q3319.95 3039.97 3319.95 3048.72 Q3319.95 3057.45 3316.87 3062.05 Q3313.82 3066.64 3308.01 3066.64 Q3302.2 3066.64 3299.12 3062.05 Q3296.06 3057.45 3296.06 3048.72 Q3296.06 3039.97 3299.12 3035.39 Q3302.2 3030.78 3308.01 3030.78 Z" fill="#000000" fill-rule="nonzero" fill-opacity="1" /><path clip-path="url(#clip800)" d="M1998.66 3112.11 L2005.56 3112.11 L2017.37 3129.77 L2029.24 3112.11 L2036.15 3112.11 L2020.87 3134.93 L2037.17 3159.63 L2030.26 3159.63 L2016.89 3139.42 L2003.43 3159.63 L1996.49 3159.63 L2013.46 3134.26 L1998.66 3112.11 Z" fill="#000000" fill-rule="nonzero" fill-opacity="1" /><path clip-path="url(#clip800)" d="M2039.14 3139.16 L2056.3 3139.16 L2056.3 3144.38 L2039.14 3144.38 L2039.14 3139.16 Z" fill="#000000" fill-rule="nonzero" fill-opacity="1" /><path clip-path="url(#clip800)" d="M2081.82 3141.71 Q2074.73 3141.71 2071.99 3143.33 Q2069.25 3144.95 2069.25 3148.87 Q2069.25 3151.99 2071.29 3153.84 Q2073.36 3155.65 2076.89 3155.65 Q2081.76 3155.65 2084.69 3152.21 Q2087.65 3148.74 2087.65 3143.01 L2087.65 3141.71 L2081.82 3141.71 M2093.5 3139.29 L2093.5 3159.63 L2087.65 3159.63 L2087.65 3154.22 Q2085.64 3157.46 2082.65 3159.02 Q2079.66 3160.55 2075.33 3160.55 Q2069.86 3160.55 2066.61 3157.5 Q2063.39 3154.41 2063.39 3149.25 Q2063.39 3143.24 2067.41 3140.18 Q2071.45 3137.13 2079.44 3137.13 L2087.65 3137.13 L2087.65 3136.55 Q2087.65 3132.51 2084.97 3130.31 Q2082.33 3128.09 2077.53 3128.09 Q2074.47 3128.09 2071.57 3128.82 Q2068.68 3129.55 2066 3131.01 L2066 3125.6 Q2069.22 3124.36 2072.24 3123.76 Q2075.27 3123.12 2078.13 3123.12 Q2085.87 3123.12 2089.69 3127.13 Q2093.5 3131.14 2093.5 3139.29 Z" fill="#000000" fill-rule="nonzero" fill-opacity="1" /><path clip-path="url(#clip800)" d="M2135.2 3123.98 L2122.31 3141.33 L2135.87 3159.63 L2128.96 3159.63 L2118.59 3145.62 L2108.21 3159.63 L2101.3 3159.63 L2115.15 3140.98 L2102.48 3123.98 L2109.39 3123.98 L2118.84 3136.68 L2128.29 3123.98 L2135.2 3123.98 Z" fill="#000000" fill-rule="nonzero" fill-opacity="1" /><path clip-path="url(#clip800)" d="M2144.14 3123.98 L2150 3123.98 L2150 3159.63 L2144.14 3159.63 L2144.14 3123.98 M2144.14 3110.1 L2150 3110.1 L2150 3117.52 L2144.14 3117.52 L2144.14 3110.1 Z" fill="#000000" fill-rule="nonzero" fill-opacity="1" /><path clip-path="url(#clip800)" d="M2184.98 3125.03 L2184.98 3130.57 Q2182.5 3129.3 2179.82 3128.66 Q2177.15 3128.02 2174.29 3128.02 Q2169.92 3128.02 2167.73 3129.36 Q2165.56 3130.7 2165.56 3133.37 Q2165.56 3135.41 2167.12 3136.58 Q2168.68 3137.73 2173.39 3138.78 L2175.4 3139.23 Q2181.64 3140.56 2184.25 3143.01 Q2186.89 3145.43 2186.89 3149.79 Q2186.89 3154.76 2182.94 3157.65 Q2179.03 3160.55 2172.15 3160.55 Q2169.29 3160.55 2166.17 3159.98 Q2163.08 3159.44 2159.64 3158.32 L2159.64 3152.28 Q2162.89 3153.96 2166.04 3154.82 Q2169.19 3155.65 2172.28 3155.65 Q2176.42 3155.65 2178.65 3154.25 Q2180.87 3152.82 2180.87 3150.24 Q2180.87 3147.85 2179.25 3146.58 Q2177.66 3145.31 2172.22 3144.13 L2170.18 3143.65 Q2164.74 3142.5 2162.32 3140.15 Q2159.9 3137.76 2159.9 3133.62 Q2159.9 3128.6 2163.46 3125.86 Q2167.03 3123.12 2173.59 3123.12 Q2176.83 3123.12 2179.7 3123.6 Q2182.56 3124.08 2184.98 3125.03 Z" fill="#000000" fill-rule="nonzero" fill-opacity="1" /><polyline clip-path="url(#clip800)" style="stroke:#000000; stroke-linecap:round; stroke-linejoin:round; stroke-width:4; stroke-opacity:1; fill:none" points="230.625,2990.76 230.625,135.568 "/>
<polyline clip-path="url(#clip800)" style="stroke:#000000; stroke-linecap:round; stroke-linejoin:round; stroke-width:4; stroke-opacity:1; fill:none" points="230.625,2404.91 249.523,2404.91 "/>
<polyline clip-path="url(#clip800)" style="stroke:#000000; stroke-linecap:round; stroke-linejoin:round; stroke-width:4; stroke-opacity:1; fill:none" points="230.625,1731.51 249.523,1731.51 "/>
<polyline clip-path="url(#clip800)" style="stroke:#000000; stroke-linecap:round; stroke-linejoin:round; stroke-width:4; stroke-opacity:1; fill:none" points="230.625,1058.12 249.523,1058.12 "/>
<polyline clip-path="url(#clip800)" style="stroke:#000000; stroke-linecap:round; stroke-linejoin:round; stroke-width:4; stroke-opacity:1; fill:none" points="230.625,384.724 249.523,384.724 "/>
<path clip-path="url(#clip800)" d="M122.547 2418.25 L138.866 2418.25 L138.866 2422.19 L116.922 2422.19 L116.922 2418.25 Q119.584 2415.5 124.167 2410.87 Q128.773 2406.22 129.954 2404.88 Q132.199 2402.35 133.079 2400.62 Q133.982 2398.86 133.982 2397.17 Q133.982 2394.41 132.037 2392.68 Q130.116 2390.94 127.014 2390.94 Q124.815 2390.94 122.361 2391.7 Q119.931 2392.47 117.153 2394.02 L117.153 2389.3 Q119.977 2388.16 122.431 2387.58 Q124.884 2387.01 126.922 2387.01 Q132.292 2387.01 135.486 2389.69 Q138.681 2392.38 138.681 2396.87 Q138.681 2399 137.871 2400.92 Q137.083 2402.82 134.977 2405.41 Q134.398 2406.08 131.296 2409.3 Q128.195 2412.49 122.547 2418.25 Z" fill="#000000" fill-rule="nonzero" fill-opacity="1" /><path clip-path="url(#clip800)" d="M158.681 2390.71 Q155.07 2390.71 153.241 2394.27 Q151.435 2397.82 151.435 2404.94 Q151.435 2412.05 153.241 2415.62 Q155.07 2419.16 158.681 2419.16 Q162.315 2419.16 164.12 2415.62 Q165.949 2412.05 165.949 2404.94 Q165.949 2397.82 164.12 2394.27 Q162.315 2390.71 158.681 2390.71 M158.681 2387.01 Q164.491 2387.01 167.546 2391.61 Q170.625 2396.19 170.625 2404.94 Q170.625 2413.67 167.546 2418.28 Q164.491 2422.86 158.681 2422.86 Q152.87 2422.86 149.792 2418.28 Q146.736 2413.67 146.736 2404.94 Q146.736 2396.19 149.792 2391.61 Q152.87 2387.01 158.681 2387.01 Z" fill="#000000" fill-rule="nonzero" fill-opacity="1" /><path clip-path="url(#clip800)" d="M131.366 1718.31 L119.56 1736.76 L131.366 1736.76 L131.366 1718.31 M130.139 1714.23 L136.019 1714.23 L136.019 1736.76 L140.949 1736.76 L140.949 1740.65 L136.019 1740.65 L136.019 1748.79 L131.366 1748.79 L131.366 1740.65 L115.764 1740.65 L115.764 1736.13 L130.139 1714.23 Z" fill="#000000" fill-rule="nonzero" fill-opacity="1" /><path clip-path="url(#clip800)" d="M158.681 1717.31 Q155.07 1717.31 153.241 1720.88 Q151.435 1724.42 151.435 1731.55 Q151.435 1738.66 153.241 1742.22 Q155.07 1745.76 158.681 1745.76 Q162.315 1745.76 164.12 1742.22 Q165.949 1738.66 165.949 1731.55 Q165.949 1724.42 164.12 1720.88 Q162.315 1717.31 158.681 1717.31 M158.681 1713.61 Q164.491 1713.61 167.546 1718.22 Q170.625 1722.8 170.625 1731.55 Q170.625 1740.28 167.546 1744.88 Q164.491 1749.47 158.681 1749.47 Q152.87 1749.47 149.792 1744.88 Q146.736 1740.28 146.736 1731.55 Q146.736 1722.8 149.792 1718.22 Q152.87 1713.61 158.681 1713.61 Z" fill="#000000" fill-rule="nonzero" fill-opacity="1" /><path clip-path="url(#clip800)" d="M129.097 1056.26 Q125.949 1056.26 124.097 1058.41 Q122.269 1060.56 122.269 1064.31 Q122.269 1068.04 124.097 1070.21 Q125.949 1072.37 129.097 1072.37 Q132.246 1072.37 134.074 1070.21 Q135.926 1068.04 135.926 1064.31 Q135.926 1060.56 134.074 1058.41 Q132.246 1056.26 129.097 1056.26 M138.38 1041.6 L138.38 1045.86 Q136.621 1045.03 134.815 1044.59 Q133.033 1044.15 131.273 1044.15 Q126.644 1044.15 124.19 1047.27 Q121.759 1050.4 121.412 1056.72 Q122.778 1054.71 124.838 1053.64 Q126.898 1052.55 129.375 1052.55 Q134.584 1052.55 137.593 1055.72 Q140.625 1058.87 140.625 1064.31 Q140.625 1069.64 137.477 1072.85 Q134.329 1076.07 129.097 1076.07 Q123.102 1076.07 119.931 1071.49 Q116.76 1066.88 116.76 1058.15 Q116.76 1049.96 120.648 1045.1 Q124.537 1040.21 131.088 1040.21 Q132.847 1040.21 134.63 1040.56 Q136.435 1040.91 138.38 1041.6 Z" fill="#000000" fill-rule="nonzero" fill-opacity="1" /><path clip-path="url(#clip800)" d="M158.681 1043.92 Q155.07 1043.92 153.241 1047.48 Q151.435 1051.02 151.435 1058.15 Q151.435 1065.26 153.241 1068.83 Q155.07 1072.37 158.681 1072.37 Q162.315 1072.37 164.12 1068.83 Q165.949 1065.26 165.949 1058.15 Q165.949 1051.02 164.12 1047.48 Q162.315 1043.92 158.681 1043.92 M158.681 1040.21 Q164.491 1040.21 167.546 1044.82 Q170.625 1049.4 170.625 1058.15 Q170.625 1066.88 167.546 1071.49 Q164.491 1076.07 158.681 1076.07 Q152.87 1076.07 149.792 1071.49 Q146.736 1066.88 146.736 1058.15 Q146.736 1049.4 149.792 1044.82 Q152.87 1040.21 158.681 1040.21 Z" fill="#000000" fill-rule="nonzero" fill-opacity="1" /><path clip-path="url(#clip800)" d="M128.519 385.592 Q125.185 385.592 123.264 387.375 Q121.366 389.157 121.366 392.282 Q121.366 395.407 123.264 397.19 Q125.185 398.972 128.519 398.972 Q131.852 398.972 133.773 397.19 Q135.695 395.384 135.695 392.282 Q135.695 389.157 133.773 387.375 Q131.875 385.592 128.519 385.592 M123.843 383.602 Q120.834 382.861 119.144 380.801 Q117.477 378.741 117.477 375.778 Q117.477 371.634 120.417 369.227 Q123.38 366.819 128.519 366.819 Q133.681 366.819 136.621 369.227 Q139.56 371.634 139.56 375.778 Q139.56 378.741 137.871 380.801 Q136.204 382.861 133.218 383.602 Q136.597 384.389 138.472 386.68 Q140.371 388.972 140.371 392.282 Q140.371 397.305 137.292 399.99 Q134.236 402.676 128.519 402.676 Q122.801 402.676 119.722 399.99 Q116.667 397.305 116.667 392.282 Q116.667 388.972 118.565 386.68 Q120.463 384.389 123.843 383.602 M122.13 376.217 Q122.13 378.903 123.797 380.407 Q125.486 381.912 128.519 381.912 Q131.528 381.912 133.218 380.407 Q134.931 378.903 134.931 376.217 Q134.931 373.532 133.218 372.028 Q131.528 370.523 128.519 370.523 Q125.486 370.523 123.797 372.028 Q122.13 373.532 122.13 376.217 Z" fill="#000000" fill-rule="nonzero" fill-opacity="1" /><path clip-path="url(#clip800)" d="M158.681 370.523 Q155.07 370.523 153.241 374.088 Q151.435 377.629 151.435 384.759 Q151.435 391.866 153.241 395.43 Q155.07 398.972 158.681 398.972 Q162.315 398.972 164.12 395.43 Q165.949 391.866 165.949 384.759 Q165.949 377.629 164.12 374.088 Q162.315 370.523 158.681 370.523 M158.681 366.819 Q164.491 366.819 167.546 371.426 Q170.625 376.009 170.625 384.759 Q170.625 393.486 167.546 398.092 Q164.491 402.676 158.681 402.676 Q152.87 402.676 149.792 398.092 Q146.736 393.486 146.736 384.759 Q146.736 376.009 149.792 371.426 Q152.87 366.819 158.681 366.819 Z" fill="#000000" fill-rule="nonzero" fill-opacity="1" /><path clip-path="url(#clip800)" d="M-6.01184 1654.74 L-6.01184 1647.83 L13.5309 1634.65 L-6.01184 1621.57 L-6.01184 1614.66 L18.8781 1631.47 L41.5082 1631.47 L41.5082 1637.93 L18.8781 1637.93 L-6.01184 1654.74 Z" fill="#000000" fill-rule="nonzero" fill-opacity="1" /><path clip-path="url(#clip800)" d="M21.0424 1619.34 L21.0424 1602.19 L26.2623 1602.19 L26.2623 1619.34 L21.0424 1619.34 Z" fill="#000000" fill-rule="nonzero" fill-opacity="1" /><path clip-path="url(#clip800)" d="M23.5887 1576.66 Q23.5887 1583.76 25.2119 1586.5 Q26.8352 1589.23 30.7501 1589.23 Q33.8693 1589.23 35.7154 1587.2 Q37.5296 1585.13 37.5296 1581.59 Q37.5296 1576.72 34.0921 1573.8 Q30.6228 1570.84 24.8937 1570.84 L23.5887 1570.84 L23.5887 1576.66 M21.1697 1564.98 L41.5082 1564.98 L41.5082 1570.84 L36.0973 1570.84 Q39.3438 1572.84 40.9034 1575.83 Q42.4312 1578.83 42.4312 1583.15 Q42.4312 1588.63 39.3756 1591.88 Q36.2883 1595.09 31.1321 1595.09 Q25.1165 1595.09 22.0609 1591.08 Q19.0054 1587.04 19.0054 1579.05 L19.0054 1570.84 L18.4325 1570.84 Q14.3902 1570.84 12.1941 1573.51 Q9.96608 1576.15 9.96608 1580.96 Q9.96608 1584.01 10.6981 1586.91 Q11.4302 1589.81 12.8943 1592.48 L7.48346 1592.48 Q6.24214 1589.27 5.6374 1586.24 Q5.00083 1583.22 5.00083 1580.35 Q5.00083 1572.62 9.01123 1568.8 Q13.0216 1564.98 21.1697 1564.98 Z" fill="#000000" fill-rule="nonzero" fill-opacity="1" /><path clip-path="url(#clip800)" d="M5.8602 1523.28 L23.2068 1536.18 L41.5082 1522.62 L41.5082 1529.52 L27.5036 1539.9 L41.5082 1550.28 L41.5082 1557.18 L22.8566 1543.34 L5.8602 1556 L5.8602 1549.1 L18.5598 1539.64 L5.8602 1530.19 L5.8602 1523.28 Z" fill="#000000" fill-rule="nonzero" fill-opacity="1" /><path clip-path="url(#clip800)" d="M5.8602 1514.34 L5.8602 1508.48 L41.5082 1508.48 L41.5082 1514.34 L5.8602 1514.34 M-8.01704 1514.34 L-8.01704 1508.48 L-0.600992 1508.48 L-0.600992 1514.34 L-8.01704 1514.34 Z" fill="#000000" fill-rule="nonzero" fill-opacity="1" /><path clip-path="url(#clip800)" d="M6.91054 1473.51 L12.4487 1473.51 Q11.1756 1475.99 10.539 1478.66 Q9.90242 1481.33 9.90242 1484.2 Q9.90242 1488.56 11.2392 1490.76 Q12.576 1492.92 15.2496 1492.92 Q17.2866 1492.92 18.4643 1491.36 Q19.6101 1489.8 20.6605 1485.09 L21.1061 1483.09 Q22.4429 1476.85 24.8937 1474.24 Q27.3126 1471.6 31.6731 1471.6 Q36.6384 1471.6 39.5348 1475.54 Q42.4312 1479.46 42.4312 1486.33 Q42.4312 1489.2 41.8583 1492.32 Q41.3172 1495.4 40.2032 1498.84 L34.1558 1498.84 Q35.8427 1495.59 36.702 1492.44 Q37.5296 1489.29 37.5296 1486.2 Q37.5296 1482.07 36.1291 1479.84 Q34.6969 1477.61 32.1187 1477.61 Q29.7316 1477.61 28.4585 1479.23 Q27.1853 1480.83 26.0077 1486.27 L25.5302 1488.31 Q24.3844 1493.75 22.0291 1496.17 Q19.642 1498.59 15.5042 1498.59 Q10.4753 1498.59 7.73808 1495.02 Q5.00083 1491.46 5.00083 1484.9 Q5.00083 1481.65 5.47826 1478.79 Q5.95569 1475.92 6.91054 1473.51 Z" fill="#000000" fill-rule="nonzero" fill-opacity="1" /><path clip-path="url(#clip800)" d="M1825.02 16.7545 L1825.02 25.383 Q1820.89 21.5346 1816.19 19.6307 Q1811.53 17.7268 1806.26 17.7268 Q1795.89 17.7268 1790.38 24.0867 Q1784.87 30.4061 1784.87 42.3968 Q1784.87 54.3469 1790.38 60.7069 Q1795.89 67.0263 1806.26 67.0263 Q1811.53 67.0263 1816.19 65.1223 Q1820.89 63.2184 1825.02 59.3701 L1825.02 67.9175 Q1820.73 70.8341 1815.9 72.2924 Q1811.12 73.7508 1805.78 73.7508 Q1792.05 73.7508 1784.15 65.3654 Q1776.25 56.9395 1776.25 42.3968 Q1776.25 27.8135 1784.15 19.4281 Q1792.05 11.0023 1805.78 11.0023 Q1811.21 11.0023 1815.99 12.4606 Q1820.81 13.8784 1825.02 16.7545 Z" fill="#000000" fill-rule="nonzero" fill-opacity="1" /><path clip-path="url(#clip800)" d="M1854.92 32.4315 Q1848.92 32.4315 1845.44 37.1306 Q1841.95 41.7891 1841.95 49.9314 Q1841.95 58.0738 1845.4 62.7728 Q1848.88 67.4314 1854.92 67.4314 Q1860.87 67.4314 1864.35 62.7323 Q1867.84 58.0333 1867.84 49.9314 Q1867.84 41.8701 1864.35 37.1711 Q1860.87 32.4315 1854.92 32.4315 M1854.92 26.1121 Q1864.64 26.1121 1870.19 32.4315 Q1875.74 38.7509 1875.74 49.9314 Q1875.74 61.0714 1870.19 67.4314 Q1864.64 73.7508 1854.92 73.7508 Q1845.15 73.7508 1839.6 67.4314 Q1834.09 61.0714 1834.09 49.9314 Q1834.09 38.7509 1839.6 32.4315 Q1845.15 26.1121 1854.92 26.1121 Z" fill="#000000" fill-rule="nonzero" fill-opacity="1" /><path clip-path="url(#clip800)" d="M1905.67 32.4315 Q1899.68 32.4315 1896.19 37.1306 Q1892.71 41.7891 1892.71 49.9314 Q1892.71 58.0738 1896.15 62.7728 Q1899.64 67.4314 1905.67 67.4314 Q1911.63 67.4314 1915.11 62.7323 Q1918.6 58.0333 1918.6 49.9314 Q1918.6 41.8701 1915.11 37.1711 Q1911.63 32.4315 1905.67 32.4315 M1905.67 26.1121 Q1915.4 26.1121 1920.94 32.4315 Q1926.49 38.7509 1926.49 49.9314 Q1926.49 61.0714 1920.94 67.4314 Q1915.4 73.7508 1905.67 73.7508 Q1895.91 73.7508 1890.36 67.4314 Q1884.85 61.0714 1884.85 49.9314 Q1884.85 38.7509 1890.36 32.4315 Q1895.91 26.1121 1905.67 26.1121 Z" fill="#000000" fill-rule="nonzero" fill-opacity="1" /><path clip-path="url(#clip800)" d="M1965.14 34.1734 Q1963.88 33.4443 1962.39 33.1202 Q1960.93 32.7556 1959.14 32.7556 Q1952.83 32.7556 1949.42 36.8875 Q1946.06 40.9789 1946.06 48.6757 L1946.06 72.576 L1938.57 72.576 L1938.57 27.2059 L1946.06 27.2059 L1946.06 34.2544 Q1948.41 30.1225 1952.18 28.1376 Q1955.94 26.1121 1961.33 26.1121 Q1962.1 26.1121 1963.03 26.2337 Q1963.97 26.3147 1965.1 26.5172 L1965.14 34.1734 Z" fill="#000000" fill-rule="nonzero" fill-opacity="1" /><path clip-path="url(#clip800)" d="M2001.36 34.0924 L2001.36 9.54393 L2008.81 9.54393 L2008.81 72.576 L2001.36 72.576 L2001.36 65.7705 Q1999.01 69.8214 1995.4 71.8063 Q1991.84 73.7508 1986.81 73.7508 Q1978.59 73.7508 1973.4 67.1883 Q1968.26 60.6258 1968.26 49.9314 Q1968.26 39.2371 1973.4 32.6746 Q1978.59 26.1121 1986.81 26.1121 Q1991.84 26.1121 1995.4 28.0971 Q1999.01 30.0415 2001.36 34.0924 M1975.96 49.9314 Q1975.96 58.1548 1979.32 62.8538 Q1982.72 67.5124 1988.64 67.5124 Q1994.55 67.5124 1997.95 62.8538 Q2001.36 58.1548 2001.36 49.9314 Q2001.36 41.7081 1997.95 37.0496 Q1994.55 32.3505 1988.64 32.3505 Q1982.72 32.3505 1979.32 37.0496 Q1975.96 41.7081 1975.96 49.9314 Z" fill="#000000" fill-rule="nonzero" fill-opacity="1" /><path clip-path="url(#clip800)" d="M2024.16 27.2059 L2031.62 27.2059 L2031.62 72.576 L2024.16 72.576 L2024.16 27.2059 M2024.16 9.54393 L2031.62 9.54393 L2031.62 18.9825 L2024.16 18.9825 L2024.16 9.54393 Z" fill="#000000" fill-rule="nonzero" fill-opacity="1" /><path clip-path="url(#clip800)" d="M2084.93 45.1919 L2084.93 72.576 L2077.47 72.576 L2077.47 45.4349 Q2077.47 38.994 2074.96 35.7938 Q2072.45 32.5936 2067.43 32.5936 Q2061.39 32.5936 2057.91 36.4419 Q2054.42 40.2903 2054.42 46.9338 L2054.42 72.576 L2046.93 72.576 L2046.93 27.2059 L2054.42 27.2059 L2054.42 34.2544 Q2057.1 30.163 2060.7 28.1376 Q2064.35 26.1121 2069.09 26.1121 Q2076.9 26.1121 2080.92 30.9732 Q2084.93 35.7938 2084.93 45.1919 Z" fill="#000000" fill-rule="nonzero" fill-opacity="1" /><path clip-path="url(#clip800)" d="M2120.41 49.7694 Q2111.38 49.7694 2107.89 51.8354 Q2104.41 53.9013 2104.41 58.8839 Q2104.41 62.8538 2107 65.2034 Q2109.64 67.5124 2114.13 67.5124 Q2120.33 67.5124 2124.06 63.1374 Q2127.82 58.7219 2127.82 51.4303 L2127.82 49.7694 L2120.41 49.7694 M2135.28 46.6907 L2135.28 72.576 L2127.82 72.576 L2127.82 65.6895 Q2125.27 69.8214 2121.46 71.8063 Q2117.66 73.7508 2112.15 73.7508 Q2105.18 73.7508 2101.05 69.8619 Q2096.96 65.9325 2096.96 59.3701 Q2096.96 51.7138 2102.06 47.825 Q2107.21 43.9361 2117.37 43.9361 L2127.82 43.9361 L2127.82 43.2069 Q2127.82 38.0623 2124.42 35.2672 Q2121.06 32.4315 2114.94 32.4315 Q2111.05 32.4315 2107.37 33.3632 Q2103.68 34.295 2100.28 36.1584 L2100.28 29.2718 Q2104.37 27.692 2108.22 26.9223 Q2112.07 26.1121 2115.71 26.1121 Q2125.56 26.1121 2130.42 31.2163 Q2135.28 36.3204 2135.28 46.6907 Z" fill="#000000" fill-rule="nonzero" fill-opacity="1" /><path clip-path="url(#clip800)" d="M2158 14.324 L2158 27.2059 L2173.36 27.2059 L2173.36 32.9987 L2158 32.9987 L2158 57.6282 Q2158 63.1779 2159.5 64.7578 Q2161.04 66.3376 2165.7 66.3376 L2173.36 66.3376 L2173.36 72.576 L2165.7 72.576 Q2157.07 72.576 2153.79 69.3758 Q2150.51 66.1351 2150.51 57.6282 L2150.51 32.9987 L2145.04 32.9987 L2145.04 27.2059 L2150.51 27.2059 L2150.51 14.324 L2158 14.324 Z" fill="#000000" fill-rule="nonzero" fill-opacity="1" /><path clip-path="url(#clip800)" d="M2221.97 48.0275 L2221.97 51.6733 L2187.7 51.6733 Q2188.18 59.3701 2192.31 63.421 Q2196.49 67.4314 2203.9 67.4314 Q2208.19 67.4314 2212.2 66.3781 Q2216.26 65.3249 2220.23 63.2184 L2220.23 70.267 Q2216.22 71.9684 2212 72.8596 Q2207.79 73.7508 2203.45 73.7508 Q2192.6 73.7508 2186.24 67.4314 Q2179.92 61.1119 2179.92 50.3365 Q2179.92 39.1965 2185.91 32.6746 Q2191.95 26.1121 2202.16 26.1121 Q2211.31 26.1121 2216.62 32.0264 Q2221.97 37.9003 2221.97 48.0275 M2214.51 45.84 Q2214.43 39.7232 2211.07 36.0774 Q2207.75 32.4315 2202.24 32.4315 Q2196 32.4315 2192.23 35.9558 Q2188.51 39.4801 2187.94 45.8805 L2214.51 45.84 Z" fill="#000000" fill-rule="nonzero" fill-opacity="1" /><path clip-path="url(#clip800)" d="M2269.08 18.8205 L2269.08 41.5461 L2279.37 41.5461 Q2285.08 41.5461 2288.2 38.5889 Q2291.32 35.6318 2291.32 30.163 Q2291.32 24.7348 2288.2 21.7777 Q2285.08 18.8205 2279.37 18.8205 L2269.08 18.8205 M2260.9 12.096 L2279.37 12.096 Q2289.54 12.096 2294.72 16.714 Q2299.95 21.2916 2299.95 30.163 Q2299.95 39.1155 2294.72 43.6931 Q2289.54 48.2706 2279.37 48.2706 L2269.08 48.2706 L2269.08 72.576 L2260.9 72.576 L2260.9 12.096 Z" fill="#000000" fill-rule="nonzero" fill-opacity="1" /><path clip-path="url(#clip800)" d="M2310.6 9.54393 L2318.05 9.54393 L2318.05 72.576 L2310.6 72.576 L2310.6 9.54393 Z" fill="#000000" fill-rule="nonzero" fill-opacity="1" /><path clip-path="url(#clip800)" d="M2351.23 32.4315 Q2345.24 32.4315 2341.75 37.1306 Q2338.27 41.7891 2338.27 49.9314 Q2338.27 58.0738 2341.71 62.7728 Q2345.2 67.4314 2351.23 67.4314 Q2357.19 67.4314 2360.67 62.7323 Q2364.15 58.0333 2364.15 49.9314 Q2364.15 41.8701 2360.67 37.1711 Q2357.19 32.4315 2351.23 32.4315 M2351.23 26.1121 Q2360.95 26.1121 2366.5 32.4315 Q2372.05 38.7509 2372.05 49.9314 Q2372.05 61.0714 2366.5 67.4314 Q2360.95 73.7508 2351.23 73.7508 Q2341.47 73.7508 2335.92 67.4314 Q2330.41 61.0714 2330.41 49.9314 Q2330.41 38.7509 2335.92 32.4315 Q2341.47 26.1121 2351.23 26.1121 Z" fill="#000000" fill-rule="nonzero" fill-opacity="1" /><path clip-path="url(#clip800)" d="M2391.78 14.324 L2391.78 27.2059 L2407.13 27.2059 L2407.13 32.9987 L2391.78 32.9987 L2391.78 57.6282 Q2391.78 63.1779 2393.28 64.7578 Q2394.82 66.3376 2399.48 66.3376 L2407.13 66.3376 L2407.13 72.576 L2399.48 72.576 Q2390.85 72.576 2387.57 69.3758 Q2384.29 66.1351 2384.29 57.6282 L2384.29 32.9987 L2378.82 32.9987 L2378.82 27.2059 L2384.29 27.2059 L2384.29 14.324 L2391.78 14.324 Z" fill="#000000" fill-rule="nonzero" fill-opacity="1" /><path clip-path="url(#clip802)" d="M705.594 1875.86 L681.594 1923.86 L729.594 1923.86 L705.594 1875.86 Z" fill="#ffc0cb" fill-rule="evenodd" fill-opacity="1" stroke="none"/>
<path clip-path="url(#clip802)" d="M705.594 1707.51 L681.594 1755.51 L729.594 1755.51 L705.594 1707.51 Z" fill="#ffc0cb" fill-rule="evenodd" fill-opacity="1" stroke="none"/>
<path clip-path="url(#clip802)" d="M631.669 1707.51 L607.669 1755.51 L655.669 1755.51 L631.669 1707.51 Z" fill="#ffc0cb" fill-rule="evenodd" fill-opacity="1" stroke="none"/>
<path clip-path="url(#clip802)" d="M631.669 1539.17 L607.669 1587.17 L655.669 1587.17 L631.669 1539.17 Z" fill="#ffc0cb" fill-rule="evenodd" fill-opacity="1" stroke="none"/>
<path clip-path="url(#clip802)" d="M520.781 1875.86 L496.781 1923.86 L544.781 1923.86 L520.781 1875.86 Z" fill="#ffc0cb" fill-rule="evenodd" fill-opacity="1" stroke="none"/>
<path clip-path="url(#clip802)" d="M520.781 1539.17 L496.781 1587.17 L544.781 1587.17 L520.781 1539.17 Z" fill="#ffc0cb" fill-rule="evenodd" fill-opacity="1" stroke="none"/>
<path clip-path="url(#clip802)" d="M409.893 1707.51 L385.893 1755.51 L433.893 1755.51 L409.893 1707.51 Z" fill="#ffc0cb" fill-rule="evenodd" fill-opacity="1" stroke="none"/>
<path clip-path="url(#clip802)" d="M335.968 1707.51 L311.968 1755.51 L359.968 1755.51 L335.968 1707.51 Z" fill="#ffc0cb" fill-rule="evenodd" fill-opacity="1" stroke="none"/>
<path clip-path="url(#clip802)" d="M335.968 1539.17 L311.968 1587.17 L359.968 1587.17 L335.968 1539.17 Z" fill="#ffc0cb" fill-rule="evenodd" fill-opacity="1" stroke="none"/>
<path clip-path="url(#clip802)" d="M1962.32 2885.96 L1938.32 2933.96 L1986.32 2933.96 L1962.32 2885.96 Z" fill="#ffc0cb" fill-rule="evenodd" fill-opacity="1" stroke="none"/>
<path clip-path="url(#clip802)" d="M1888.4 2717.61 L1864.4 2765.61 L1912.4 2765.61 L1888.4 2717.61 Z" fill="#ffc0cb" fill-rule="evenodd" fill-opacity="1" stroke="none"/>
<path clip-path="url(#clip802)" d="M1888.4 2549.26 L1864.4 2597.26 L1912.4 2597.26 L1888.4 2549.26 Z" fill="#ffc0cb" fill-rule="evenodd" fill-opacity="1" stroke="none"/>
<path clip-path="url(#clip802)" d="M1814.47 2885.96 L1790.47 2933.96 L1838.47 2933.96 L1814.47 2885.96 Z" fill="#ffc0cb" fill-rule="evenodd" fill-opacity="1" stroke="none"/>
<path clip-path="url(#clip802)" d="M1814.47 2549.26 L1790.47 2597.26 L1838.47 2597.26 L1814.47 2549.26 Z" fill="#ffc0cb" fill-rule="evenodd" fill-opacity="1" stroke="none"/>
<path clip-path="url(#clip802)" d="M1740.55 2885.96 L1716.55 2933.96 L1764.55 2933.96 L1740.55 2885.96 Z" fill="#ffc0cb" fill-rule="evenodd" fill-opacity="1" stroke="none"/>
<path clip-path="url(#clip802)" d="M1740.55 2549.26 L1716.55 2597.26 L1764.55 2597.26 L1740.55 2549.26 Z" fill="#ffc0cb" fill-rule="evenodd" fill-opacity="1" stroke="none"/>
<path clip-path="url(#clip802)" d="M1629.66 2885.96 L1605.66 2933.96 L1653.66 2933.96 L1629.66 2885.96 Z" fill="#ffc0cb" fill-rule="evenodd" fill-opacity="1" stroke="none"/>
<path clip-path="url(#clip802)" d="M2184.1 2044.21 L2160.1 2092.21 L2208.1 2092.21 L2184.1 2044.21 Z" fill="#ffc0cb" fill-rule="evenodd" fill-opacity="1" stroke="none"/>
<path clip-path="url(#clip802)" d="M2184.1 1875.86 L2160.1 1923.86 L2208.1 1923.86 L2184.1 1875.86 Z" fill="#ffc0cb" fill-rule="evenodd" fill-opacity="1" stroke="none"/>
<path clip-path="url(#clip802)" d="M2184.1 1707.51 L2160.1 1755.51 L2208.1 1755.51 L2184.1 1707.51 Z" fill="#ffc0cb" fill-rule="evenodd" fill-opacity="1" stroke="none"/>
<path clip-path="url(#clip802)" d="M2110.17 2044.21 L2086.17 2092.21 L2134.17 2092.21 L2110.17 2044.21 Z" fill="#ffc0cb" fill-rule="evenodd" fill-opacity="1" stroke="none"/>
<path clip-path="url(#clip802)" d="M2110.17 1707.51 L2086.17 1755.51 L2134.17 1755.51 L2110.17 1707.51 Z" fill="#ffc0cb" fill-rule="evenodd" fill-opacity="1" stroke="none"/>
<path clip-path="url(#clip802)" d="M2073.21 1875.86 L2049.21 1923.86 L2097.21 1923.86 L2073.21 1875.86 Z" fill="#ffc0cb" fill-rule="evenodd" fill-opacity="1" stroke="none"/>
<path clip-path="url(#clip802)" d="M2073.21 1707.51 L2049.21 1755.51 L2097.21 1755.51 L2073.21 1707.51 Z" fill="#ffc0cb" fill-rule="evenodd" fill-opacity="1" stroke="none"/>
<path clip-path="url(#clip802)" d="M1999.28 2044.21 L1975.28 2092.21 L2023.28 2092.21 L1999.28 2044.21 Z" fill="#ffc0cb" fill-rule="evenodd" fill-opacity="1" stroke="none"/>
<path clip-path="url(#clip802)" d="M1999.28 1875.86 L1975.28 1923.86 L2023.28 1923.86 L1999.28 1875.86 Z" fill="#ffc0cb" fill-rule="evenodd" fill-opacity="1" stroke="none"/>
<path clip-path="url(#clip802)" d="M3847.41 2044.21 L3823.41 2092.21 L3871.41 2092.21 L3847.41 2044.21 Z" fill="#ffc0cb" fill-rule="evenodd" fill-opacity="1" stroke="none"/>
<path clip-path="url(#clip802)" d="M3847.41 1875.86 L3823.41 1923.86 L3871.41 1923.86 L3847.41 1875.86 Z" fill="#ffc0cb" fill-rule="evenodd" fill-opacity="1" stroke="none"/>
<path clip-path="url(#clip802)" d="M2294.98 2044.21 L2270.98 2092.21 L2318.98 2092.21 L2294.98 2044.21 Z" fill="#ffc0cb" fill-rule="evenodd" fill-opacity="1" stroke="none"/>
<path clip-path="url(#clip802)" d="M3736.52 2044.21 L3712.52 2092.21 L3760.52 2092.21 L3736.52 2044.21 Z" fill="#ffc0cb" fill-rule="evenodd" fill-opacity="1" stroke="none"/>
<path clip-path="url(#clip802)" d="M2294.98 1875.86 L2270.98 1923.86 L2318.98 1923.86 L2294.98 1875.86 Z" fill="#ffc0cb" fill-rule="evenodd" fill-opacity="1" stroke="none"/>
<path clip-path="url(#clip802)" d="M3662.6 1875.86 L3638.6 1923.86 L3686.6 1923.86 L3662.6 1875.86 Z" fill="#ffc0cb" fill-rule="evenodd" fill-opacity="1" stroke="none"/>
<path clip-path="url(#clip802)" d="M3588.67 2044.21 L3564.67 2092.21 L3612.67 2092.21 L3588.67 2044.21 Z" fill="#ffc0cb" fill-rule="evenodd" fill-opacity="1" stroke="none"/>
<path clip-path="url(#clip802)" d="M3588.67 1875.86 L3564.67 1923.86 L3612.67 1923.86 L3588.67 1875.86 Z" fill="#ffc0cb" fill-rule="evenodd" fill-opacity="1" stroke="none"/>
<path clip-path="url(#clip802)" d="M3551.71 2044.21 L3527.71 2092.21 L3575.71 2092.21 L3551.71 2044.21 Z" fill="#ffc0cb" fill-rule="evenodd" fill-opacity="1" stroke="none"/>
<path clip-path="url(#clip802)" d="M3477.79 2212.56 L3453.79 2260.56 L3501.79 2260.56 L3477.79 2212.56 Z" fill="#ffc0cb" fill-rule="evenodd" fill-opacity="1" stroke="none"/>
<path clip-path="url(#clip802)" d="M3477.79 1875.86 L3453.79 1923.86 L3501.79 1923.86 L3477.79 1875.86 Z" fill="#ffc0cb" fill-rule="evenodd" fill-opacity="1" stroke="none"/>
<path clip-path="url(#clip802)" d="M2812.46 192.376 L2788.46 240.376 L2836.46 240.376 L2812.46 192.376 Z" fill="#ffc0cb" fill-rule="evenodd" fill-opacity="1" stroke="none"/>
<path clip-path="url(#clip802)" d="M2738.54 192.376 L2714.54 240.376 L2762.54 240.376 L2738.54 192.376 Z" fill="#ffc0cb" fill-rule="evenodd" fill-opacity="1" stroke="none"/>
<path clip-path="url(#clip802)" d="M2738.54 293.385 L2714.54 341.385 L2762.54 341.385 L2738.54 293.385 Z" fill="#ffc0cb" fill-rule="evenodd" fill-opacity="1" stroke="none"/>
<path clip-path="url(#clip802)" d="M2627.65 360.724 L2603.65 408.724 L2651.65 408.724 L2627.65 360.724 Z" fill="#ffc0cb" fill-rule="evenodd" fill-opacity="1" stroke="none"/>
<path clip-path="url(#clip802)" d="M2553.72 360.724 L2529.72 408.724 L2577.72 408.724 L2553.72 360.724 Z" fill="#ffc0cb" fill-rule="evenodd" fill-opacity="1" stroke="none"/>
<path clip-path="url(#clip802)" d="M2553.72 192.376 L2529.72 240.376 L2577.72 240.376 L2553.72 192.376 Z" fill="#ffc0cb" fill-rule="evenodd" fill-opacity="1" stroke="none"/>
<path clip-path="url(#clip802)" d="M2479.8 529.073 L2455.8 577.073 L2503.8 577.073 L2479.8 529.073 Z" fill="#ffc0cb" fill-rule="evenodd" fill-opacity="1" stroke="none"/>
<path clip-path="url(#clip802)" d="M2368.91 360.724 L2344.91 408.724 L2392.91 408.724 L2368.91 360.724 Z" fill="#ffc0cb" fill-rule="evenodd" fill-opacity="1" stroke="none"/>
<path clip-path="url(#clip802)" d="M2368.91 192.376 L2344.91 240.376 L2392.91 240.376 L2368.91 192.376 Z" fill="#ffc0cb" fill-rule="evenodd" fill-opacity="1" stroke="none"/>
<circle clip-path="url(#clip802)" cx="1038.26" cy="2371.24" r="14.4" fill="#e26f46" fill-rule="evenodd" fill-opacity="1" stroke="#000000" stroke-opacity="1" stroke-width="6.4"/>
<circle clip-path="url(#clip802)" cx="1740.55" cy="2371.24" r="14.4" fill="#e26f46" fill-rule="evenodd" fill-opacity="1" stroke="#000000" stroke-opacity="1" stroke-width="6.4"/>
<circle clip-path="url(#clip802)" cx="2442.83" cy="2371.24" r="14.4" fill="#e26f46" fill-rule="evenodd" fill-opacity="1" stroke="#000000" stroke-opacity="1" stroke-width="6.4"/>
<circle clip-path="url(#clip802)" cx="3145.12" cy="2371.24" r="14.4" fill="#e26f46" fill-rule="evenodd" fill-opacity="1" stroke="#000000" stroke-opacity="1" stroke-width="6.4"/>
<circle clip-path="url(#clip802)" cx="1038.26" cy="1832.52" r="14.4" fill="#e26f46" fill-rule="evenodd" fill-opacity="1" stroke="#000000" stroke-opacity="1" stroke-width="6.4"/>
<circle clip-path="url(#clip802)" cx="1740.55" cy="1832.52" r="14.4" fill="#e26f46" fill-rule="evenodd" fill-opacity="1" stroke="#000000" stroke-opacity="1" stroke-width="6.4"/>
<circle clip-path="url(#clip802)" cx="2442.83" cy="1832.52" r="14.4" fill="#e26f46" fill-rule="evenodd" fill-opacity="1" stroke="#000000" stroke-opacity="1" stroke-width="6.4"/>
<circle clip-path="url(#clip802)" cx="3145.12" cy="1832.52" r="14.4" fill="#e26f46" fill-rule="evenodd" fill-opacity="1" stroke="#000000" stroke-opacity="1" stroke-width="6.4"/>
<circle clip-path="url(#clip802)" cx="1038.26" cy="1293.81" r="14.4" fill="#e26f46" fill-rule="evenodd" fill-opacity="1" stroke="#000000" stroke-opacity="1" stroke-width="6.4"/>
<circle clip-path="url(#clip802)" cx="1740.55" cy="1293.81" r="14.4" fill="#e26f46" fill-rule="evenodd" fill-opacity="1" stroke="#000000" stroke-opacity="1" stroke-width="6.4"/>
<circle clip-path="url(#clip802)" cx="2442.83" cy="1293.81" r="14.4" fill="#e26f46" fill-rule="evenodd" fill-opacity="1" stroke="#000000" stroke-opacity="1" stroke-width="6.4"/>
<circle clip-path="url(#clip802)" cx="3145.12" cy="1293.81" r="14.4" fill="#e26f46" fill-rule="evenodd" fill-opacity="1" stroke="#000000" stroke-opacity="1" stroke-width="6.4"/>
<circle clip-path="url(#clip802)" cx="1038.26" cy="755.092" r="14.4" fill="#e26f46" fill-rule="evenodd" fill-opacity="1" stroke="#000000" stroke-opacity="1" stroke-width="6.4"/>
<circle clip-path="url(#clip802)" cx="1740.55" cy="755.092" r="14.4" fill="#e26f46" fill-rule="evenodd" fill-opacity="1" stroke="#000000" stroke-opacity="1" stroke-width="6.4"/>
<circle clip-path="url(#clip802)" cx="2442.83" cy="755.092" r="14.4" fill="#e26f46" fill-rule="evenodd" fill-opacity="1" stroke="#000000" stroke-opacity="1" stroke-width="6.4"/>
<circle clip-path="url(#clip802)" cx="3145.12" cy="755.092" r="14.4" fill="#e26f46" fill-rule="evenodd" fill-opacity="1" stroke="#000000" stroke-opacity="1" stroke-width="6.4"/>
<circle clip-path="url(#clip802)" cx="1814.47" cy="1394.82" r="28.8" fill="#ffff00" fill-rule="evenodd" fill-opacity="1" stroke="#000000" stroke-opacity="1" stroke-width="6.4"/>
<circle clip-path="url(#clip802)" cx="1038.26" cy="2371.24" r="21.6" fill="#ffffff" fill-rule="evenodd" fill-opacity="1" stroke="#000000" stroke-opacity="1" stroke-width="6.4"/>
<circle clip-path="url(#clip802)" cx="1740.55" cy="2371.24" r="28.8" fill="#add8e6" fill-rule="evenodd" fill-opacity="1" stroke="#000000" stroke-opacity="1" stroke-width="6.4"/>
<circle clip-path="url(#clip802)" cx="2442.83" cy="2371.24" r="21.6" fill="#ffffff" fill-rule="evenodd" fill-opacity="1" stroke="#000000" stroke-opacity="1" stroke-width="6.4"/>
<circle clip-path="url(#clip802)" cx="3145.12" cy="2371.24" r="28.8" fill="#add8e6" fill-rule="evenodd" fill-opacity="1" stroke="#000000" stroke-opacity="1" stroke-width="6.4"/>
<circle clip-path="url(#clip802)" cx="1038.26" cy="1832.52" r="28.8" fill="#add8e6" fill-rule="evenodd" fill-opacity="1" stroke="#000000" stroke-opacity="1" stroke-width="6.4"/>
<circle clip-path="url(#clip802)" cx="1740.55" cy="1832.52" r="28.8" fill="#add8e6" fill-rule="evenodd" fill-opacity="1" stroke="#000000" stroke-opacity="1" stroke-width="6.4"/>
<circle clip-path="url(#clip802)" cx="2442.83" cy="1832.52" r="21.6" fill="#ffffff" fill-rule="evenodd" fill-opacity="1" stroke="#000000" stroke-opacity="1" stroke-width="6.4"/>
<circle clip-path="url(#clip802)" cx="3145.12" cy="1832.52" r="21.6" fill="#ffffff" fill-rule="evenodd" fill-opacity="1" stroke="#000000" stroke-opacity="1" stroke-width="6.4"/>
<circle clip-path="url(#clip802)" cx="1038.26" cy="1293.81" r="28.8" fill="#add8e6" fill-rule="evenodd" fill-opacity="1" stroke="#000000" stroke-opacity="1" stroke-width="6.4"/>
<circle clip-path="url(#clip802)" cx="1740.55" cy="1293.81" r="21.6" fill="#ffffff" fill-rule="evenodd" fill-opacity="1" stroke="#000000" stroke-opacity="1" stroke-width="6.4"/>
<circle clip-path="url(#clip802)" cx="2442.83" cy="1293.81" r="28.8" fill="#add8e6" fill-rule="evenodd" fill-opacity="1" stroke="#000000" stroke-opacity="1" stroke-width="6.4"/>
<circle clip-path="url(#clip802)" cx="3145.12" cy="1293.81" r="28.8" fill="#add8e6" fill-rule="evenodd" fill-opacity="1" stroke="#000000" stroke-opacity="1" stroke-width="6.4"/>
<circle clip-path="url(#clip802)" cx="1038.26" cy="755.092" r="28.8" fill="#add8e6" fill-rule="evenodd" fill-opacity="1" stroke="#000000" stroke-opacity="1" stroke-width="6.4"/>
<circle clip-path="url(#clip802)" cx="1740.55" cy="755.092" r="28.8" fill="#add8e6" fill-rule="evenodd" fill-opacity="1" stroke="#000000" stroke-opacity="1" stroke-width="6.4"/>
<circle clip-path="url(#clip802)" cx="2442.83" cy="755.092" r="21.6" fill="#ffffff" fill-rule="evenodd" fill-opacity="1" stroke="#000000" stroke-opacity="1" stroke-width="6.4"/>
<circle clip-path="url(#clip802)" cx="3145.12" cy="755.092" r="28.8" fill="#add8e6" fill-rule="evenodd" fill-opacity="1" stroke="#000000" stroke-opacity="1" stroke-width="6.4"/>
<polyline clip-path="url(#clip802)" style="stroke:#000000; stroke-linecap:round; stroke-linejoin:round; stroke-width:4; stroke-opacity:1; fill:none" stroke-dasharray="16, 10" points="1814.47,1394.82 2442.83,1293.81 "/>
<polyline clip-path="url(#clip802)" style="stroke:#000000; stroke-linecap:round; stroke-linejoin:round; stroke-width:4; stroke-opacity:1; fill:none" points="2378.83,1273.71 2442.83,1293.81 2388.36,1332.95 "/>
<polyline clip-path="url(#clip802)" style="stroke:#000000; stroke-linecap:round; stroke-linejoin:round; stroke-width:4; stroke-opacity:1; fill:none" stroke-dasharray="16, 10" points="2442.83,1293.81 1814.47,1394.82 "/>
<polyline clip-path="url(#clip802)" style="stroke:#000000; stroke-linecap:round; stroke-linejoin:round; stroke-width:4; stroke-opacity:1; fill:none" stroke-dasharray="16, 10" points="1038.26,1832.52 1814.47,1394.82 "/>
<polyline clip-path="url(#clip802)" style="stroke:#000000; stroke-linecap:round; stroke-linejoin:round; stroke-width:4; stroke-opacity:1; fill:none" points="1747.47,1398.16 1814.47,1394.82 1776.94,1450.42 "/>
<polyline clip-path="url(#clip802)" style="stroke:#000000; stroke-linecap:round; stroke-linejoin:round; stroke-width:4; stroke-opacity:1; fill:none" stroke-dasharray="16, 10" points="1814.47,1394.82 1038.26,1832.52 "/>
<polyline clip-path="url(#clip802)" style="stroke:#e4da2a; stroke-linecap:round; stroke-linejoin:round; stroke-width:4; stroke-opacity:1; fill:none" points="1038.26,1832.52 705.594,1731.51 "/>
<polyline clip-path="url(#clip802)" style="stroke:#e4da2a; stroke-linecap:round; stroke-linejoin:round; stroke-width:4; stroke-opacity:1; fill:none" points="754.29,1777.65 705.594,1731.51 771.722,1720.24 "/>
<polyline clip-path="url(#clip802)" style="stroke:#e4da2a; stroke-linecap:round; stroke-linejoin:round; stroke-width:4; stroke-opacity:1; fill:none" points="705.594,1731.51 1038.26,1832.52 "/>
<polyline clip-path="url(#clip802)" style="stroke:#e4da2a; stroke-linecap:round; stroke-linejoin:round; stroke-width:4; stroke-opacity:1; fill:none" points="705.594,1731.51 705.594,1899.86 "/>
<polyline clip-path="url(#clip802)" style="stroke:#e4da2a; stroke-linecap:round; stroke-linejoin:round; stroke-width:4; stroke-opacity:1; fill:none" points="735.594,1839.86 705.594,1899.86 675.594,1839.86 "/>
<polyline clip-path="url(#clip802)" style="stroke:#e4da2a; stroke-linecap:round; stroke-linejoin:round; stroke-width:4; stroke-opacity:1; fill:none" points="705.594,1899.86 705.594,1731.51 "/>
<polyline clip-path="url(#clip802)" style="stroke:#e4da2a; stroke-linecap:round; stroke-linejoin:round; stroke-width:4; stroke-opacity:1; fill:none" points="705.594,1899.86 1038.26,1832.52 "/>
<polyline clip-path="url(#clip802)" style="stroke:#e4da2a; stroke-linecap:round; stroke-linejoin:round; stroke-width:4; stroke-opacity:1; fill:none" points="973.498,1815.02 1038.26,1832.52 985.402,1873.83 "/>
<polyline clip-path="url(#clip802)" style="stroke:#e4da2a; stroke-linecap:round; stroke-linejoin:round; stroke-width:4; stroke-opacity:1; fill:none" points="1038.26,1832.52 705.594,1899.86 "/>
<polyline clip-path="url(#clip802)" style="stroke:#d6f71e; stroke-linecap:round; stroke-linejoin:round; stroke-width:4; stroke-opacity:1; fill:none" points="1038.26,1832.52 631.669,1731.51 "/>
<polyline clip-path="url(#clip802)" style="stroke:#d6f71e; stroke-linecap:round; stroke-linejoin:round; stroke-width:4; stroke-opacity:1; fill:none" points="682.666,1775.1 631.669,1731.51 697.132,1716.87 "/>
<polyline clip-path="url(#clip802)" style="stroke:#d6f71e; stroke-linecap:round; stroke-linejoin:round; stroke-width:4; stroke-opacity:1; fill:none" points="631.669,1731.51 1038.26,1832.52 "/>
<polyline clip-path="url(#clip802)" style="stroke:#d6f71e; stroke-linecap:round; stroke-linejoin:round; stroke-width:4; stroke-opacity:1; fill:none" points="631.669,1731.51 520.781,1899.86 "/>
<polyline clip-path="url(#clip802)" style="stroke:#d6f71e; stroke-linecap:round; stroke-linejoin:round; stroke-width:4; stroke-opacity:1; fill:none" points="578.839,1866.26 520.781,1899.86 528.732,1833.25 "/>
<polyline clip-path="url(#clip802)" style="stroke:#d6f71e; stroke-linecap:round; stroke-linejoin:round; stroke-width:4; stroke-opacity:1; fill:none" points="520.781,1899.86 631.669,1731.51 "/>
<polyline clip-path="url(#clip802)" style="stroke:#d6f71e; stroke-linecap:round; stroke-linejoin:round; stroke-width:4; stroke-opacity:1; fill:none" points="520.781,1899.86 1038.26,1832.52 "/>
<polyline clip-path="url(#clip802)" style="stroke:#d6f71e; stroke-linecap:round; stroke-linejoin:round; stroke-width:4; stroke-opacity:1; fill:none" points="974.888,1810.52 1038.26,1832.52 982.63,1870.02 "/>
<polyline clip-path="url(#clip802)" style="stroke:#d6f71e; stroke-linecap:round; stroke-linejoin:round; stroke-width:4; stroke-opacity:1; fill:none" points="1038.26,1832.52 520.781,1899.86 "/>
<polyline clip-path="url(#clip802)" style="stroke:#3fc179; stroke-linecap:round; stroke-linejoin:round; stroke-width:4; stroke-opacity:1; fill:none" points="1038.26,1832.52 409.893,1731.51 "/>
<polyline clip-path="url(#clip802)" style="stroke:#3fc179; stroke-linecap:round; stroke-linejoin:round; stroke-width:4; stroke-opacity:1; fill:none" points="464.372,1770.66 409.893,1731.51 473.894,1711.42 "/>
<polyline clip-path="url(#clip802)" style="stroke:#3fc179; stroke-linecap:round; stroke-linejoin:round; stroke-width:4; stroke-opacity:1; fill:none" points="409.893,1731.51 1038.26,1832.52 "/>
<polyline clip-path="url(#clip802)" style="stroke:#3fc179; stroke-linecap:round; stroke-linejoin:round; stroke-width:4; stroke-opacity:1; fill:none" points="409.893,1731.51 335.968,1731.51 "/>
<polyline clip-path="url(#clip802)" style="stroke:#3fc179; stroke-linecap:round; stroke-linejoin:round; stroke-width:4; stroke-opacity:1; fill:none" points="395.968,1761.51 335.968,1731.51 395.968,1701.51 "/>
<polyline clip-path="url(#clip802)" style="stroke:#3fc179; stroke-linecap:round; stroke-linejoin:round; stroke-width:4; stroke-opacity:1; fill:none" points="335.968,1731.51 409.893,1731.51 "/>
<polyline clip-path="url(#clip802)" style="stroke:#3fc179; stroke-linecap:round; stroke-linejoin:round; stroke-width:4; stroke-opacity:1; fill:none" points="335.968,1731.51 1038.26,1832.52 "/>
<polyline clip-path="url(#clip802)" style="stroke:#3fc179; stroke-linecap:round; stroke-linejoin:round; stroke-width:4; stroke-opacity:1; fill:none" points="983.139,1794.29 1038.26,1832.52 974.597,1853.68 "/>
<polyline clip-path="url(#clip802)" style="stroke:#3fc179; stroke-linecap:round; stroke-linejoin:round; stroke-width:4; stroke-opacity:1; fill:none" points="1038.26,1832.52 335.968,1731.51 "/>
<polyline clip-path="url(#clip802)" style="stroke:#2406dd; stroke-linecap:round; stroke-linejoin:round; stroke-width:4; stroke-opacity:1; fill:none" points="1038.26,1832.52 335.968,1563.17 "/>
<polyline clip-path="url(#clip802)" style="stroke:#2406dd; stroke-linecap:round; stroke-linejoin:round; stroke-width:4; stroke-opacity:1; fill:none" points="381.246,1612.66 335.968,1563.17 402.732,1556.64 "/>
<polyline clip-path="url(#clip802)" style="stroke:#2406dd; stroke-linecap:round; stroke-linejoin:round; stroke-width:4; stroke-opacity:1; fill:none" points="335.968,1563.17 1038.26,1832.52 "/>
<polyline clip-path="url(#clip802)" style="stroke:#2406dd; stroke-linecap:round; stroke-linejoin:round; stroke-width:4; stroke-opacity:1; fill:none" points="335.968,1563.17 520.781,1563.17 "/>
<polyline clip-path="url(#clip802)" style="stroke:#2406dd; stroke-linecap:round; stroke-linejoin:round; stroke-width:4; stroke-opacity:1; fill:none" points="460.781,1533.17 520.781,1563.17 460.781,1593.17 "/>
<polyline clip-path="url(#clip802)" style="stroke:#2406dd; stroke-linecap:round; stroke-linejoin:round; stroke-width:4; stroke-opacity:1; fill:none" points="520.781,1563.17 335.968,1563.17 "/>
<polyline clip-path="url(#clip802)" style="stroke:#2406dd; stroke-linecap:round; stroke-linejoin:round; stroke-width:4; stroke-opacity:1; fill:none" points="520.781,1563.17 631.669,1563.17 "/>
<polyline clip-path="url(#clip802)" style="stroke:#2406dd; stroke-linecap:round; stroke-linejoin:round; stroke-width:4; stroke-opacity:1; fill:none" points="571.669,1533.17 631.669,1563.17 571.669,1593.17 "/>
<polyline clip-path="url(#clip802)" style="stroke:#2406dd; stroke-linecap:round; stroke-linejoin:round; stroke-width:4; stroke-opacity:1; fill:none" points="631.669,1563.17 520.781,1563.17 "/>
<polyline clip-path="url(#clip802)" style="stroke:#2406dd; stroke-linecap:round; stroke-linejoin:round; stroke-width:4; stroke-opacity:1; fill:none" points="631.669,1563.17 1038.26,1832.52 "/>
<polyline clip-path="url(#clip802)" style="stroke:#2406dd; stroke-linecap:round; stroke-linejoin:round; stroke-width:4; stroke-opacity:1; fill:none" points="1004.81,1774.38 1038.26,1832.52 971.669,1824.4 "/>
<polyline clip-path="url(#clip802)" style="stroke:#2406dd; stroke-linecap:round; stroke-linejoin:round; stroke-width:4; stroke-opacity:1; fill:none" points="1038.26,1832.52 631.669,1563.17 "/>
<polyline clip-path="url(#clip802)" style="stroke:#000000; stroke-linecap:round; stroke-linejoin:round; stroke-width:4; stroke-opacity:1; fill:none" stroke-dasharray="16, 10" points="1740.55,1832.52 1038.26,1832.52 "/>
<polyline clip-path="url(#clip802)" style="stroke:#000000; stroke-linecap:round; stroke-linejoin:round; stroke-width:4; stroke-opacity:1; fill:none" points="1098.26,1862.52 1038.26,1832.52 1098.26,1802.52 "/>
<polyline clip-path="url(#clip802)" style="stroke:#000000; stroke-linecap:round; stroke-linejoin:round; stroke-width:4; stroke-opacity:1; fill:none" stroke-dasharray="16, 10" points="1038.26,1832.52 1740.55,1832.52 "/>
<polyline clip-path="url(#clip802)" style="stroke:#9fdfc0; stroke-linecap:round; stroke-linejoin:round; stroke-width:4; stroke-opacity:1; fill:none" points="1740.55,1832.52 1962.32,2909.96 "/>
<polyline clip-path="url(#clip802)" style="stroke:#9fdfc0; stroke-linecap:round; stroke-linejoin:round; stroke-width:4; stroke-opacity:1; fill:none" points="1979.61,2845.14 1962.32,2909.96 1920.84,2857.24 "/>
<polyline clip-path="url(#clip802)" style="stroke:#9fdfc0; stroke-linecap:round; stroke-linejoin:round; stroke-width:4; stroke-opacity:1; fill:none" points="1962.32,2909.96 1740.55,1832.52 "/>
<polyline clip-path="url(#clip802)" style="stroke:#9fdfc0; stroke-linecap:round; stroke-linejoin:round; stroke-width:4; stroke-opacity:1; fill:none" points="1962.32,2909.96 1814.47,2909.96 "/>
<polyline clip-path="url(#clip802)" style="stroke:#9fdfc0; stroke-linecap:round; stroke-linejoin:round; stroke-width:4; stroke-opacity:1; fill:none" points="1874.47,2939.96 1814.47,2909.96 1874.47,2879.96 "/>
<polyline clip-path="url(#clip802)" style="stroke:#9fdfc0; stroke-linecap:round; stroke-linejoin:round; stroke-width:4; stroke-opacity:1; fill:none" points="1814.47,2909.96 1962.32,2909.96 "/>
<polyline clip-path="url(#clip802)" style="stroke:#9fdfc0; stroke-linecap:round; stroke-linejoin:round; stroke-width:4; stroke-opacity:1; fill:none" points="1814.47,2909.96 1740.55,1832.52 "/>
<polyline clip-path="url(#clip802)" style="stroke:#9fdfc0; stroke-linecap:round; stroke-linejoin:round; stroke-width:4; stroke-opacity:1; fill:none" points="1714.72,1894.44 1740.55,1832.52 1774.58,1890.33 "/>
<polyline clip-path="url(#clip802)" style="stroke:#9fdfc0; stroke-linecap:round; stroke-linejoin:round; stroke-width:4; stroke-opacity:1; fill:none" points="1740.55,1832.52 1814.47,2909.96 "/>
<polyline clip-path="url(#clip802)" style="stroke:#1553bd; stroke-linecap:round; stroke-linejoin:round; stroke-width:4; stroke-opacity:1; fill:none" points="1740.55,1832.52 1888.4,2573.26 "/>
<polyline clip-path="url(#clip802)" style="stroke:#1553bd; stroke-linecap:round; stroke-linejoin:round; stroke-width:4; stroke-opacity:1; fill:none" points="1906.07,2508.55 1888.4,2573.26 1847.23,2520.29 "/>
<polyline clip-path="url(#clip802)" style="stroke:#1553bd; stroke-linecap:round; stroke-linejoin:round; stroke-width:4; stroke-opacity:1; fill:none" points="1888.4,2573.26 1740.55,1832.52 "/>
<polyline clip-path="url(#clip802)" style="stroke:#1553bd; stroke-linecap:round; stroke-linejoin:round; stroke-width:4; stroke-opacity:1; fill:none" points="1888.4,2573.26 1888.4,2741.61 "/>
<polyline clip-path="url(#clip802)" style="stroke:#1553bd; stroke-linecap:round; stroke-linejoin:round; stroke-width:4; stroke-opacity:1; fill:none" points="1918.4,2681.61 1888.4,2741.61 1858.4,2681.61 "/>
<polyline clip-path="url(#clip802)" style="stroke:#1553bd; stroke-linecap:round; stroke-linejoin:round; stroke-width:4; stroke-opacity:1; fill:none" points="1888.4,2741.61 1888.4,2573.26 "/>
<polyline clip-path="url(#clip802)" style="stroke:#1553bd; stroke-linecap:round; stroke-linejoin:round; stroke-width:4; stroke-opacity:1; fill:none" points="1888.4,2741.61 1740.55,1832.52 "/>
<polyline clip-path="url(#clip802)" style="stroke:#1553bd; stroke-linecap:round; stroke-linejoin:round; stroke-width:4; stroke-opacity:1; fill:none" points="1720.57,1896.56 1740.55,1832.52 1779.79,1886.93 "/>
<polyline clip-path="url(#clip802)" style="stroke:#1553bd; stroke-linecap:round; stroke-linejoin:round; stroke-width:4; stroke-opacity:1; fill:none" points="1740.55,1832.52 1888.4,2741.61 "/>
<polyline clip-path="url(#clip802)" style="stroke:#687c9c; stroke-linecap:round; stroke-linejoin:round; stroke-width:4; stroke-opacity:1; fill:none" points="1740.55,1832.52 1814.47,2573.26 "/>
<polyline clip-path="url(#clip802)" style="stroke:#687c9c; stroke-linecap:round; stroke-linejoin:round; stroke-width:4; stroke-opacity:1; fill:none" points="1838.36,2510.58 1814.47,2573.26 1778.66,2516.53 "/>
<polyline clip-path="url(#clip802)" style="stroke:#687c9c; stroke-linecap:round; stroke-linejoin:round; stroke-width:4; stroke-opacity:1; fill:none" points="1814.47,2573.26 1740.55,1832.52 "/>
<polyline clip-path="url(#clip802)" style="stroke:#687c9c; stroke-linecap:round; stroke-linejoin:round; stroke-width:4; stroke-opacity:1; fill:none" points="1814.47,2573.26 1740.55,2573.26 "/>
<polyline clip-path="url(#clip802)" style="stroke:#687c9c; stroke-linecap:round; stroke-linejoin:round; stroke-width:4; stroke-opacity:1; fill:none" points="1800.55,2603.26 1740.55,2573.26 1800.55,2543.26 "/>
<polyline clip-path="url(#clip802)" style="stroke:#687c9c; stroke-linecap:round; stroke-linejoin:round; stroke-width:4; stroke-opacity:1; fill:none" points="1740.55,2573.26 1814.47,2573.26 "/>
<polyline clip-path="url(#clip802)" style="stroke:#687c9c; stroke-linecap:round; stroke-linejoin:round; stroke-width:4; stroke-opacity:1; fill:none" points="1740.55,2573.26 1740.55,1832.52 "/>
<polyline clip-path="url(#clip802)" style="stroke:#687c9c; stroke-linecap:round; stroke-linejoin:round; stroke-width:4; stroke-opacity:1; fill:none" points="1710.55,1892.52 1740.55,1832.52 1770.55,1892.52 "/>
<polyline clip-path="url(#clip802)" style="stroke:#687c9c; stroke-linecap:round; stroke-linejoin:round; stroke-width:4; stroke-opacity:1; fill:none" points="1740.55,1832.52 1740.55,2573.26 "/>
<polyline clip-path="url(#clip802)" style="stroke:#c920e8; stroke-linecap:round; stroke-linejoin:round; stroke-width:4; stroke-opacity:1; fill:none" points="1740.55,1832.52 1740.55,2909.96 "/>
<polyline clip-path="url(#clip802)" style="stroke:#c920e8; stroke-linecap:round; stroke-linejoin:round; stroke-width:4; stroke-opacity:1; fill:none" points="1770.55,2849.96 1740.55,2909.96 1710.55,2849.96 "/>
<polyline clip-path="url(#clip802)" style="stroke:#c920e8; stroke-linecap:round; stroke-linejoin:round; stroke-width:4; stroke-opacity:1; fill:none" points="1740.55,2909.96 1740.55,1832.52 "/>
<polyline clip-path="url(#clip802)" style="stroke:#c920e8; stroke-linecap:round; stroke-linejoin:round; stroke-width:4; stroke-opacity:1; fill:none" points="1740.55,2909.96 1629.66,2909.96 "/>
<polyline clip-path="url(#clip802)" style="stroke:#c920e8; stroke-linecap:round; stroke-linejoin:round; stroke-width:4; stroke-opacity:1; fill:none" points="1689.66,2939.96 1629.66,2909.96 1689.66,2879.96 "/>
<polyline clip-path="url(#clip802)" style="stroke:#c920e8; stroke-linecap:round; stroke-linejoin:round; stroke-width:4; stroke-opacity:1; fill:none" points="1629.66,2909.96 1740.55,2909.96 "/>
<polyline clip-path="url(#clip802)" style="stroke:#c920e8; stroke-linecap:round; stroke-linejoin:round; stroke-width:4; stroke-opacity:1; fill:none" points="1629.66,2909.96 1740.55,1832.52 "/>
<polyline clip-path="url(#clip802)" style="stroke:#c920e8; stroke-linecap:round; stroke-linejoin:round; stroke-width:4; stroke-opacity:1; fill:none" points="1704.56,1889.14 1740.55,1832.52 1764.25,1895.28 "/>
<polyline clip-path="url(#clip802)" style="stroke:#c920e8; stroke-linecap:round; stroke-linejoin:round; stroke-width:4; stroke-opacity:1; fill:none" points="1740.55,1832.52 1629.66,2909.96 "/>
<polyline clip-path="url(#clip802)" style="stroke:#9c548f; stroke-linecap:round; stroke-linejoin:round; stroke-width:4; stroke-opacity:1; fill:none" points="1740.55,1832.52 2184.1,1731.51 "/>
<polyline clip-path="url(#clip802)" style="stroke:#9c548f; stroke-linecap:round; stroke-linejoin:round; stroke-width:4; stroke-opacity:1; fill:none" points="2118.93,1715.59 2184.1,1731.51 2132.26,1774.09 "/>
<polyline clip-path="url(#clip802)" style="stroke:#9c548f; stroke-linecap:round; stroke-linejoin:round; stroke-width:4; stroke-opacity:1; fill:none" points="2184.1,1731.51 1740.55,1832.52 "/>
<polyline clip-path="url(#clip802)" style="stroke:#9c548f; stroke-linecap:round; stroke-linejoin:round; stroke-width:4; stroke-opacity:1; fill:none" points="2184.1,1731.51 1740.55,1832.52 "/>
<polyline clip-path="url(#clip802)" style="stroke:#9c548f; stroke-linecap:round; stroke-linejoin:round; stroke-width:4; stroke-opacity:1; fill:none" points="1805.71,1848.45 1740.55,1832.52 1792.39,1789.95 "/>
<polyline clip-path="url(#clip802)" style="stroke:#9c548f; stroke-linecap:round; stroke-linejoin:round; stroke-width:4; stroke-opacity:1; fill:none" points="1740.55,1832.52 2184.1,1731.51 "/>
<polyline clip-path="url(#clip802)" style="stroke:#175670; stroke-linecap:round; stroke-linejoin:round; stroke-width:4; stroke-opacity:1; fill:none" points="1740.55,1832.52 2073.21,1731.51 "/>
<polyline clip-path="url(#clip802)" style="stroke:#175670; stroke-linecap:round; stroke-linejoin:round; stroke-width:4; stroke-opacity:1; fill:none" points="2007.08,1720.24 2073.21,1731.51 2024.51,1777.65 "/>
<polyline clip-path="url(#clip802)" style="stroke:#175670; stroke-linecap:round; stroke-linejoin:round; stroke-width:4; stroke-opacity:1; fill:none" points="2073.21,1731.51 1740.55,1832.52 "/>
<polyline clip-path="url(#clip802)" style="stroke:#175670; stroke-linecap:round; stroke-linejoin:round; stroke-width:4; stroke-opacity:1; fill:none" points="2073.21,1731.51 2110.17,1731.51 "/>
<polyline clip-path="url(#clip802)" style="stroke:#175670; stroke-linecap:round; stroke-linejoin:round; stroke-width:4; stroke-opacity:1; fill:none" points="2050.17,1701.51 2110.17,1731.51 2050.17,1761.51 "/>
<polyline clip-path="url(#clip802)" style="stroke:#175670; stroke-linecap:round; stroke-linejoin:round; stroke-width:4; stroke-opacity:1; fill:none" points="2110.17,1731.51 2073.21,1731.51 "/>
<polyline clip-path="url(#clip802)" style="stroke:#175670; stroke-linecap:round; stroke-linejoin:round; stroke-width:4; stroke-opacity:1; fill:none" points="2110.17,1731.51 2184.1,1899.86 "/>
<polyline clip-path="url(#clip802)" style="stroke:#175670; stroke-linecap:round; stroke-linejoin:round; stroke-width:4; stroke-opacity:1; fill:none" points="2187.44,1832.86 2184.1,1899.86 2132.5,1856.99 "/>
<polyline clip-path="url(#clip802)" style="stroke:#175670; stroke-linecap:round; stroke-linejoin:round; stroke-width:4; stroke-opacity:1; fill:none" points="2184.1,1899.86 2110.17,1731.51 "/>
<polyline clip-path="url(#clip802)" style="stroke:#175670; stroke-linecap:round; stroke-linejoin:round; stroke-width:4; stroke-opacity:1; fill:none" points="2184.1,1899.86 2073.21,1899.86 "/>
<polyline clip-path="url(#clip802)" style="stroke:#175670; stroke-linecap:round; stroke-linejoin:round; stroke-width:4; stroke-opacity:1; fill:none" points="2133.21,1929.86 2073.21,1899.86 2133.21,1869.86 "/>
<polyline clip-path="url(#clip802)" style="stroke:#175670; stroke-linecap:round; stroke-linejoin:round; stroke-width:4; stroke-opacity:1; fill:none" points="2073.21,1899.86 2184.1,1899.86 "/>
<polyline clip-path="url(#clip802)" style="stroke:#175670; stroke-linecap:round; stroke-linejoin:round; stroke-width:4; stroke-opacity:1; fill:none" points="2073.21,1899.86 1740.55,1832.52 "/>
<polyline clip-path="url(#clip802)" style="stroke:#175670; stroke-linecap:round; stroke-linejoin:round; stroke-width:4; stroke-opacity:1; fill:none" points="1793.4,1873.83 1740.55,1832.52 1805.31,1815.02 "/>
<polyline clip-path="url(#clip802)" style="stroke:#175670; stroke-linecap:round; stroke-linejoin:round; stroke-width:4; stroke-opacity:1; fill:none" points="1740.55,1832.52 2073.21,1899.86 "/>
<polyline clip-path="url(#clip802)" style="stroke:#bd1f1a; stroke-linecap:round; stroke-linejoin:round; stroke-width:4; stroke-opacity:1; fill:none" points="1740.55,1832.52 2294.98,2068.21 "/>
<polyline clip-path="url(#clip802)" style="stroke:#bd1f1a; stroke-linecap:round; stroke-linejoin:round; stroke-width:4; stroke-opacity:1; fill:none" points="2251.5,2017.13 2294.98,2068.21 2228.03,2072.35 "/>
<polyline clip-path="url(#clip802)" style="stroke:#bd1f1a; stroke-linecap:round; stroke-linejoin:round; stroke-width:4; stroke-opacity:1; fill:none" points="2294.98,2068.21 1740.55,1832.52 "/>
<polyline clip-path="url(#clip802)" style="stroke:#bd1f1a; stroke-linecap:round; stroke-linejoin:round; stroke-width:4; stroke-opacity:1; fill:none" points="2294.98,2068.21 2184.1,2068.21 "/>
<polyline clip-path="url(#clip802)" style="stroke:#bd1f1a; stroke-linecap:round; stroke-linejoin:round; stroke-width:4; stroke-opacity:1; fill:none" points="2244.1,2098.21 2184.1,2068.21 2244.1,2038.21 "/>
<polyline clip-path="url(#clip802)" style="stroke:#bd1f1a; stroke-linecap:round; stroke-linejoin:round; stroke-width:4; stroke-opacity:1; fill:none" points="2184.1,2068.21 2294.98,2068.21 "/>
<polyline clip-path="url(#clip802)" style="stroke:#bd1f1a; stroke-linecap:round; stroke-linejoin:round; stroke-width:4; stroke-opacity:1; fill:none" points="2184.1,2068.21 2110.17,2068.21 "/>
<polyline clip-path="url(#clip802)" style="stroke:#bd1f1a; stroke-linecap:round; stroke-linejoin:round; stroke-width:4; stroke-opacity:1; fill:none" points="2170.17,2098.21 2110.17,2068.21 2170.17,2038.21 "/>
<polyline clip-path="url(#clip802)" style="stroke:#bd1f1a; stroke-linecap:round; stroke-linejoin:round; stroke-width:4; stroke-opacity:1; fill:none" points="2110.17,2068.21 2184.1,2068.21 "/>
<polyline clip-path="url(#clip802)" style="stroke:#bd1f1a; stroke-linecap:round; stroke-linejoin:round; stroke-width:4; stroke-opacity:1; fill:none" points="2110.17,2068.21 1999.28,2068.21 "/>
<polyline clip-path="url(#clip802)" style="stroke:#bd1f1a; stroke-linecap:round; stroke-linejoin:round; stroke-width:4; stroke-opacity:1; fill:none" points="2059.28,2098.21 1999.28,2068.21 2059.28,2038.21 "/>
<polyline clip-path="url(#clip802)" style="stroke:#bd1f1a; stroke-linecap:round; stroke-linejoin:round; stroke-width:4; stroke-opacity:1; fill:none" points="1999.28,2068.21 2110.17,2068.21 "/>
<polyline clip-path="url(#clip802)" style="stroke:#bd1f1a; stroke-linecap:round; stroke-linejoin:round; stroke-width:4; stroke-opacity:1; fill:none" points="1999.28,2068.21 1999.28,1899.86 "/>
<polyline clip-path="url(#clip802)" style="stroke:#bd1f1a; stroke-linecap:round; stroke-linejoin:round; stroke-width:4; stroke-opacity:1; fill:none" points="1969.28,1959.86 1999.28,1899.86 2029.28,1959.86 "/>
<polyline clip-path="url(#clip802)" style="stroke:#bd1f1a; stroke-linecap:round; stroke-linejoin:round; stroke-width:4; stroke-opacity:1; fill:none" points="1999.28,1899.86 1999.28,2068.21 "/>
<polyline clip-path="url(#clip802)" style="stroke:#bd1f1a; stroke-linecap:round; stroke-linejoin:round; stroke-width:4; stroke-opacity:1; fill:none" points="1999.28,1899.86 1740.55,1832.52 "/>
<polyline clip-path="url(#clip802)" style="stroke:#bd1f1a; stroke-linecap:round; stroke-linejoin:round; stroke-width:4; stroke-opacity:1; fill:none" points="1791.06,1876.67 1740.55,1832.52 1806.17,1818.6 "/>
<polyline clip-path="url(#clip802)" style="stroke:#bd1f1a; stroke-linecap:round; stroke-linejoin:round; stroke-width:4; stroke-opacity:1; fill:none" points="1740.55,1832.52 1999.28,1899.86 "/>
<polyline clip-path="url(#clip802)" style="stroke:#ee1f04; stroke-linecap:round; stroke-linejoin:round; stroke-width:4; stroke-opacity:1; fill:none" points="1740.55,1832.52 2294.98,1899.86 "/>
<polyline clip-path="url(#clip802)" style="stroke:#ee1f04; stroke-linecap:round; stroke-linejoin:round; stroke-width:4; stroke-opacity:1; fill:none" points="2239.04,1862.85 2294.98,1899.86 2231.81,1922.41 "/>
<polyline clip-path="url(#clip802)" style="stroke:#ee1f04; stroke-linecap:round; stroke-linejoin:round; stroke-width:4; stroke-opacity:1; fill:none" points="2294.98,1899.86 1740.55,1832.52 "/>
<polyline clip-path="url(#clip802)" style="stroke:#ee1f04; stroke-linecap:round; stroke-linejoin:round; stroke-width:4; stroke-opacity:1; fill:none" points="2294.98,1899.86 1740.55,1832.52 "/>
<polyline clip-path="url(#clip802)" style="stroke:#ee1f04; stroke-linecap:round; stroke-linejoin:round; stroke-width:4; stroke-opacity:1; fill:none" points="1796.49,1869.54 1740.55,1832.52 1803.73,1809.98 "/>
<polyline clip-path="url(#clip802)" style="stroke:#ee1f04; stroke-linecap:round; stroke-linejoin:round; stroke-width:4; stroke-opacity:1; fill:none" points="1740.55,1832.52 2294.98,1899.86 "/>
<polyline clip-path="url(#clip802)" style="stroke:#000000; stroke-linecap:round; stroke-linejoin:round; stroke-width:4; stroke-opacity:1; fill:none" stroke-dasharray="16, 10" points="2442.83,1293.81 1740.55,1832.52 "/>
<polyline clip-path="url(#clip802)" style="stroke:#000000; stroke-linecap:round; stroke-linejoin:round; stroke-width:4; stroke-opacity:1; fill:none" points="1806.41,1819.81 1740.55,1832.52 1769.89,1772.2 "/>
<polyline clip-path="url(#clip802)" style="stroke:#000000; stroke-linecap:round; stroke-linejoin:round; stroke-width:4; stroke-opacity:1; fill:none" stroke-dasharray="16, 10" points="1740.55,1832.52 2442.83,1293.81 "/>
<polyline clip-path="url(#clip802)" style="stroke:#6fb033; stroke-linecap:round; stroke-linejoin:round; stroke-width:4; stroke-opacity:1; fill:none" points="2442.83,1293.81 3847.41,1899.86 "/>
<polyline clip-path="url(#clip802)" style="stroke:#6fb033; stroke-linecap:round; stroke-linejoin:round; stroke-width:4; stroke-opacity:1; fill:none" points="3804.21,1848.55 3847.41,1899.86 3780.44,1903.64 "/>
<polyline clip-path="url(#clip802)" style="stroke:#6fb033; stroke-linecap:round; stroke-linejoin:round; stroke-width:4; stroke-opacity:1; fill:none" points="3847.41,1899.86 2442.83,1293.81 "/>
<polyline clip-path="url(#clip802)" style="stroke:#6fb033; stroke-linecap:round; stroke-linejoin:round; stroke-width:4; stroke-opacity:1; fill:none" points="3847.41,1899.86 3847.41,2068.21 "/>
<polyline clip-path="url(#clip802)" style="stroke:#6fb033; stroke-linecap:round; stroke-linejoin:round; stroke-width:4; stroke-opacity:1; fill:none" points="3877.41,2008.21 3847.41,2068.21 3817.41,2008.21 "/>
<polyline clip-path="url(#clip802)" style="stroke:#6fb033; stroke-linecap:round; stroke-linejoin:round; stroke-width:4; stroke-opacity:1; fill:none" points="3847.41,2068.21 3847.41,1899.86 "/>
<polyline clip-path="url(#clip802)" style="stroke:#6fb033; stroke-linecap:round; stroke-linejoin:round; stroke-width:4; stroke-opacity:1; fill:none" points="3847.41,2068.21 2442.83,1293.81 "/>
<polyline clip-path="url(#clip802)" style="stroke:#6fb033; stroke-linecap:round; stroke-linejoin:round; stroke-width:4; stroke-opacity:1; fill:none" points="2480.89,1349.05 2442.83,1293.81 2509.86,1296.51 "/>
<polyline clip-path="url(#clip802)" style="stroke:#6fb033; stroke-linecap:round; stroke-linejoin:round; stroke-width:4; stroke-opacity:1; fill:none" points="2442.83,1293.81 3847.41,2068.21 "/>
<polyline clip-path="url(#clip802)" style="stroke:#1c181c; stroke-linecap:round; stroke-linejoin:round; stroke-width:4; stroke-opacity:1; fill:none" points="2442.83,1293.81 3662.6,1899.86 "/>
<polyline clip-path="url(#clip802)" style="stroke:#1c181c; stroke-linecap:round; stroke-linejoin:round; stroke-width:4; stroke-opacity:1; fill:none" points="3622.22,1846.3 3662.6,1899.86 3595.52,1900.03 "/>
<polyline clip-path="url(#clip802)" style="stroke:#1c181c; stroke-linecap:round; stroke-linejoin:round; stroke-width:4; stroke-opacity:1; fill:none" points="3662.6,1899.86 2442.83,1293.81 "/>
<polyline clip-path="url(#clip802)" style="stroke:#1c181c; stroke-linecap:round; stroke-linejoin:round; stroke-width:4; stroke-opacity:1; fill:none" points="3662.6,1899.86 3736.52,2068.21 "/>
<polyline clip-path="url(#clip802)" style="stroke:#1c181c; stroke-linecap:round; stroke-linejoin:round; stroke-width:4; stroke-opacity:1; fill:none" points="3739.87,2001.21 3736.52,2068.21 3684.93,2025.34 "/>
<polyline clip-path="url(#clip802)" style="stroke:#1c181c; stroke-linecap:round; stroke-linejoin:round; stroke-width:4; stroke-opacity:1; fill:none" points="3736.52,2068.21 3662.6,1899.86 "/>
<polyline clip-path="url(#clip802)" style="stroke:#1c181c; stroke-linecap:round; stroke-linejoin:round; stroke-width:4; stroke-opacity:1; fill:none" points="3736.52,2068.21 3588.67,2068.21 "/>
<polyline clip-path="url(#clip802)" style="stroke:#1c181c; stroke-linecap:round; stroke-linejoin:round; stroke-width:4; stroke-opacity:1; fill:none" points="3648.67,2098.21 3588.67,2068.21 3648.67,2038.21 "/>
<polyline clip-path="url(#clip802)" style="stroke:#1c181c; stroke-linecap:round; stroke-linejoin:round; stroke-width:4; stroke-opacity:1; fill:none" points="3588.67,2068.21 3736.52,2068.21 "/>
<polyline clip-path="url(#clip802)" style="stroke:#1c181c; stroke-linecap:round; stroke-linejoin:round; stroke-width:4; stroke-opacity:1; fill:none" points="3588.67,2068.21 3551.71,2068.21 "/>
<polyline clip-path="url(#clip802)" style="stroke:#1c181c; stroke-linecap:round; stroke-linejoin:round; stroke-width:4; stroke-opacity:1; fill:none" points="3611.71,2098.21 3551.71,2068.21 3611.71,2038.21 "/>
<polyline clip-path="url(#clip802)" style="stroke:#1c181c; stroke-linecap:round; stroke-linejoin:round; stroke-width:4; stroke-opacity:1; fill:none" points="3551.71,2068.21 3588.67,2068.21 "/>
<polyline clip-path="url(#clip802)" style="stroke:#1c181c; stroke-linecap:round; stroke-linejoin:round; stroke-width:4; stroke-opacity:1; fill:none" points="3551.71,2068.21 3477.79,2236.56 "/>
<polyline clip-path="url(#clip802)" style="stroke:#1c181c; stroke-linecap:round; stroke-linejoin:round; stroke-width:4; stroke-opacity:1; fill:none" points="3529.38,2193.69 3477.79,2236.56 3474.44,2169.56 "/>
<polyline clip-path="url(#clip802)" style="stroke:#1c181c; stroke-linecap:round; stroke-linejoin:round; stroke-width:4; stroke-opacity:1; fill:none" points="3477.79,2236.56 3551.71,2068.21 "/>
<polyline clip-path="url(#clip802)" style="stroke:#1c181c; stroke-linecap:round; stroke-linejoin:round; stroke-width:4; stroke-opacity:1; fill:none" points="3477.79,2236.56 2442.83,1293.81 "/>
<polyline clip-path="url(#clip802)" style="stroke:#1c181c; stroke-linecap:round; stroke-linejoin:round; stroke-width:4; stroke-opacity:1; fill:none" points="2466.99,1356.39 2442.83,1293.81 2507.39,1312.03 "/>
<polyline clip-path="url(#clip802)" style="stroke:#1c181c; stroke-linecap:round; stroke-linejoin:round; stroke-width:4; stroke-opacity:1; fill:none" points="2442.83,1293.81 3477.79,2236.56 "/>
<polyline clip-path="url(#clip802)" style="stroke:#c1ee11; stroke-linecap:round; stroke-linejoin:round; stroke-width:4; stroke-opacity:1; fill:none" points="2442.83,1293.81 3588.67,1899.86 "/>
<polyline clip-path="url(#clip802)" style="stroke:#c1ee11; stroke-linecap:round; stroke-linejoin:round; stroke-width:4; stroke-opacity:1; fill:none" points="3549.66,1845.29 3588.67,1899.86 3521.61,1898.33 "/>
<polyline clip-path="url(#clip802)" style="stroke:#c1ee11; stroke-linecap:round; stroke-linejoin:round; stroke-width:4; stroke-opacity:1; fill:none" points="3588.67,1899.86 2442.83,1293.81 "/>
<polyline clip-path="url(#clip802)" style="stroke:#c1ee11; stroke-linecap:round; stroke-linejoin:round; stroke-width:4; stroke-opacity:1; fill:none" points="3588.67,1899.86 3477.79,1899.86 "/>
<polyline clip-path="url(#clip802)" style="stroke:#c1ee11; stroke-linecap:round; stroke-linejoin:round; stroke-width:4; stroke-opacity:1; fill:none" points="3537.79,1929.86 3477.79,1899.86 3537.79,1869.86 "/>
<polyline clip-path="url(#clip802)" style="stroke:#c1ee11; stroke-linecap:round; stroke-linejoin:round; stroke-width:4; stroke-opacity:1; fill:none" points="3477.79,1899.86 3588.67,1899.86 "/>
<polyline clip-path="url(#clip802)" style="stroke:#c1ee11; stroke-linecap:round; stroke-linejoin:round; stroke-width:4; stroke-opacity:1; fill:none" points="3477.79,1899.86 2442.83,1293.81 "/>
<polyline clip-path="url(#clip802)" style="stroke:#c1ee11; stroke-linecap:round; stroke-linejoin:round; stroke-width:4; stroke-opacity:1; fill:none" points="2479.45,1350.02 2442.83,1293.81 2509.77,1298.24 "/>
<polyline clip-path="url(#clip802)" style="stroke:#c1ee11; stroke-linecap:round; stroke-linejoin:round; stroke-width:4; stroke-opacity:1; fill:none" points="2442.83,1293.81 3477.79,1899.86 "/>
<polyline clip-path="url(#clip802)" style="stroke:#e6d65f; stroke-linecap:round; stroke-linejoin:round; stroke-width:4; stroke-opacity:1; fill:none" points="2442.83,1293.81 2812.46,216.376 "/>
<polyline clip-path="url(#clip802)" style="stroke:#e6d65f; stroke-linecap:round; stroke-linejoin:round; stroke-width:4; stroke-opacity:1; fill:none" points="2764.61,263.394 2812.46,216.376 2821.37,282.864 "/>
<polyline clip-path="url(#clip802)" style="stroke:#e6d65f; stroke-linecap:round; stroke-linejoin:round; stroke-width:4; stroke-opacity:1; fill:none" points="2812.46,216.376 2442.83,1293.81 "/>
<polyline clip-path="url(#clip802)" style="stroke:#e6d65f; stroke-linecap:round; stroke-linejoin:round; stroke-width:4; stroke-opacity:1; fill:none" points="2812.46,216.376 2553.72,216.376 "/>
<polyline clip-path="url(#clip802)" style="stroke:#e6d65f; stroke-linecap:round; stroke-linejoin:round; stroke-width:4; stroke-opacity:1; fill:none" points="2613.72,246.376 2553.72,216.376 2613.72,186.376 "/>
<polyline clip-path="url(#clip802)" style="stroke:#e6d65f; stroke-linecap:round; stroke-linejoin:round; stroke-width:4; stroke-opacity:1; fill:none" points="2553.72,216.376 2812.46,216.376 "/>
<polyline clip-path="url(#clip802)" style="stroke:#e6d65f; stroke-linecap:round; stroke-linejoin:round; stroke-width:4; stroke-opacity:1; fill:none" points="2553.72,216.376 2442.83,1293.81 "/>
<polyline clip-path="url(#clip802)" style="stroke:#e6d65f; stroke-linecap:round; stroke-linejoin:round; stroke-width:4; stroke-opacity:1; fill:none" points="2478.82,1237.19 2442.83,1293.81 2419.14,1231.05 "/>
<polyline clip-path="url(#clip802)" style="stroke:#e6d65f; stroke-linecap:round; stroke-linejoin:round; stroke-width:4; stroke-opacity:1; fill:none" points="2442.83,1293.81 2553.72,216.376 "/>
<polyline clip-path="url(#clip802)" style="stroke:#7010c6; stroke-linecap:round; stroke-linejoin:round; stroke-width:4; stroke-opacity:1; fill:none" points="2442.83,1293.81 2738.54,317.385 "/>
<polyline clip-path="url(#clip802)" style="stroke:#7010c6; stroke-linecap:round; stroke-linejoin:round; stroke-width:4; stroke-opacity:1; fill:none" points="2692.43,366.114 2738.54,317.385 2749.86,383.505 "/>
<polyline clip-path="url(#clip802)" style="stroke:#7010c6; stroke-linecap:round; stroke-linejoin:round; stroke-width:4; stroke-opacity:1; fill:none" points="2738.54,317.385 2442.83,1293.81 "/>
<polyline clip-path="url(#clip802)" style="stroke:#7010c6; stroke-linecap:round; stroke-linejoin:round; stroke-width:4; stroke-opacity:1; fill:none" points="2738.54,317.385 2738.54,216.376 "/>
<polyline clip-path="url(#clip802)" style="stroke:#7010c6; stroke-linecap:round; stroke-linejoin:round; stroke-width:4; stroke-opacity:1; fill:none" points="2708.54,276.376 2738.54,216.376 2768.54,276.376 "/>
<polyline clip-path="url(#clip802)" style="stroke:#7010c6; stroke-linecap:round; stroke-linejoin:round; stroke-width:4; stroke-opacity:1; fill:none" points="2738.54,216.376 2738.54,317.385 "/>
<polyline clip-path="url(#clip802)" style="stroke:#7010c6; stroke-linecap:round; stroke-linejoin:round; stroke-width:4; stroke-opacity:1; fill:none" points="2738.54,216.376 2442.83,1293.81 "/>
<polyline clip-path="url(#clip802)" style="stroke:#7010c6; stroke-linecap:round; stroke-linejoin:round; stroke-width:4; stroke-opacity:1; fill:none" points="2487.64,1243.89 2442.83,1293.81 2429.78,1228.01 "/>
<polyline clip-path="url(#clip802)" style="stroke:#7010c6; stroke-linecap:round; stroke-linejoin:round; stroke-width:4; stroke-opacity:1; fill:none" points="2442.83,1293.81 2738.54,216.376 "/>
<polyline clip-path="url(#clip802)" style="stroke:#1dc434; stroke-linecap:round; stroke-linejoin:round; stroke-width:4; stroke-opacity:1; fill:none" points="2442.83,1293.81 2553.72,384.724 "/>
<polyline clip-path="url(#clip802)" style="stroke:#1dc434; stroke-linecap:round; stroke-linejoin:round; stroke-width:4; stroke-opacity:1; fill:none" points="2516.68,440.651 2553.72,384.724 2576.24,447.915 "/>
<polyline clip-path="url(#clip802)" style="stroke:#1dc434; stroke-linecap:round; stroke-linejoin:round; stroke-width:4; stroke-opacity:1; fill:none" points="2553.72,384.724 2442.83,1293.81 "/>
<polyline clip-path="url(#clip802)" style="stroke:#1dc434; stroke-linecap:round; stroke-linejoin:round; stroke-width:4; stroke-opacity:1; fill:none" points="2553.72,384.724 2627.65,384.724 "/>
<polyline clip-path="url(#clip802)" style="stroke:#1dc434; stroke-linecap:round; stroke-linejoin:round; stroke-width:4; stroke-opacity:1; fill:none" points="2567.65,354.724 2627.65,384.724 2567.65,414.724 "/>
<polyline clip-path="url(#clip802)" style="stroke:#1dc434; stroke-linecap:round; stroke-linejoin:round; stroke-width:4; stroke-opacity:1; fill:none" points="2627.65,384.724 2553.72,384.724 "/>
<polyline clip-path="url(#clip802)" style="stroke:#1dc434; stroke-linecap:round; stroke-linejoin:round; stroke-width:4; stroke-opacity:1; fill:none" points="2627.65,384.724 2442.83,1293.81 "/>
<polyline clip-path="url(#clip802)" style="stroke:#1dc434; stroke-linecap:round; stroke-linejoin:round; stroke-width:4; stroke-opacity:1; fill:none" points="2484.19,1240.99 2442.83,1293.81 2425.39,1229.03 "/>
<polyline clip-path="url(#clip802)" style="stroke:#1dc434; stroke-linecap:round; stroke-linejoin:round; stroke-width:4; stroke-opacity:1; fill:none" points="2442.83,1293.81 2627.65,384.724 "/>
<polyline clip-path="url(#clip802)" style="stroke:#c5751b; stroke-linecap:round; stroke-linejoin:round; stroke-width:4; stroke-opacity:1; fill:none" points="2442.83,1293.81 2479.8,553.073 "/>
<polyline clip-path="url(#clip802)" style="stroke:#c5751b; stroke-linecap:round; stroke-linejoin:round; stroke-width:4; stroke-opacity:1; fill:none" points="2446.84,611.503 2479.8,553.073 2506.77,614.494 "/>
<polyline clip-path="url(#clip802)" style="stroke:#c5751b; stroke-linecap:round; stroke-linejoin:round; stroke-width:4; stroke-opacity:1; fill:none" points="2479.8,553.073 2442.83,1293.81 "/>
<polyline clip-path="url(#clip802)" style="stroke:#c5751b; stroke-linecap:round; stroke-linejoin:round; stroke-width:4; stroke-opacity:1; fill:none" points="2479.8,553.073 2368.91,216.376 "/>
<polyline clip-path="url(#clip802)" style="stroke:#c5751b; stroke-linecap:round; stroke-linejoin:round; stroke-width:4; stroke-opacity:1; fill:none" points="2359.18,282.749 2368.91,216.376 2416.17,263.98 "/>
<polyline clip-path="url(#clip802)" style="stroke:#c5751b; stroke-linecap:round; stroke-linejoin:round; stroke-width:4; stroke-opacity:1; fill:none" points="2368.91,216.376 2479.8,553.073 "/>
<polyline clip-path="url(#clip802)" style="stroke:#c5751b; stroke-linecap:round; stroke-linejoin:round; stroke-width:4; stroke-opacity:1; fill:none" points="2368.91,216.376 2368.91,384.724 "/>
<polyline clip-path="url(#clip802)" style="stroke:#c5751b; stroke-linecap:round; stroke-linejoin:round; stroke-width:4; stroke-opacity:1; fill:none" points="2398.91,324.724 2368.91,384.724 2338.91,324.724 "/>
<polyline clip-path="url(#clip802)" style="stroke:#c5751b; stroke-linecap:round; stroke-linejoin:round; stroke-width:4; stroke-opacity:1; fill:none" points="2368.91,384.724 2368.91,216.376 "/>
<polyline clip-path="url(#clip802)" style="stroke:#c5751b; stroke-linecap:round; stroke-linejoin:round; stroke-width:4; stroke-opacity:1; fill:none" points="2368.91,384.724 2442.83,1293.81 "/>
<polyline clip-path="url(#clip802)" style="stroke:#c5751b; stroke-linecap:round; stroke-linejoin:round; stroke-width:4; stroke-opacity:1; fill:none" points="2467.87,1231.57 2442.83,1293.81 2408.07,1236.44 "/>
<polyline clip-path="url(#clip802)" style="stroke:#c5751b; stroke-linecap:round; stroke-linejoin:round; stroke-width:4; stroke-opacity:1; fill:none" points="2442.83,1293.81 2368.91,384.724 "/>
</svg>
